<mxfile host="app.diagrams.net" agent="Mozilla/5.0 (Macintosh; Intel Mac OS X 10_15_7) AppleWebKit/537.36 (KHTML, like Gecko) Chrome/126.0.0.0 Safari/537.36 OPR/112.0.0.0" version="24.7.5">
  <diagram id="f106602c-feb2-e66a-4537-3a34d633f6aa" name="Page-1">
    <mxGraphModel dx="864" dy="554" grid="1" gridSize="10" guides="1" tooltips="1" connect="1" arrows="1" fold="1" page="1" pageScale="1" pageWidth="1169" pageHeight="827" background="none" math="0" shadow="0">
      <root>
        <mxCell id="0" />
        <mxCell id="1" parent="0" />
        <mxCell id="14" value="&lt;b&gt;Cobalt&amp;nbsp;&lt;/b&gt;Cloud Platform" style="fillColor=#F6F6F6;strokeColor=none;shadow=0;gradientColor=none;fontSize=14;align=left;spacing=10;fontColor=#717171;9E9E9E;verticalAlign=top;spacingTop=-4;fontStyle=0;spacingLeft=40;html=1;container=0;" parent="1" vertex="1">
          <mxGeometry x="450" y="100" width="430" height="430" as="geometry" />
        </mxCell>
        <mxCell id="711" value="&amp;nbsp;Lists Logic" style="rounded=1;absoluteArcSize=1;arcSize=2;html=1;strokeColor=none;gradientColor=none;shadow=0;dashed=0;strokeColor=none;fontSize=12;fontColor=#9E9E9E;align=left;verticalAlign=top;spacing=10;spacingTop=-4;fillColor=#E1F5FE;" parent="1" vertex="1">
          <mxGeometry x="470" y="220" width="370" height="100" as="geometry" />
        </mxCell>
        <mxCell id="712" style="edgeStyle=orthogonalEdgeStyle;rounded=0;html=1;labelBackgroundColor=none;startFill=1;startSize=4;endArrow=blockThin;endFill=1;endSize=4;jettySize=auto;orthogonalLoop=1;strokeColor=#4284F3;strokeWidth=2;fontSize=12;fontColor=#000000;align=center;dashed=0;" parent="1" source="705" target="711" edge="1">
          <mxGeometry relative="1" as="geometry">
            <Array as="points">
              <mxPoint x="420" y="230" />
              <mxPoint x="420" y="270" />
            </Array>
          </mxGeometry>
        </mxCell>
        <mxCell id="705" value="Data Retention" style="rounded=1;absoluteArcSize=1;arcSize=2;html=1;strokeColor=none;gradientColor=none;shadow=0;dashed=0;strokeColor=none;fontSize=12;fontColor=#9E9E9E;align=left;verticalAlign=top;spacing=10;spacingTop=-4;fillColor=#FFF8E1;" parent="1" vertex="1">
          <mxGeometry x="90" y="150" width="280" height="130" as="geometry" />
        </mxCell>
        <mxCell id="713" style="edgeStyle=orthogonalEdgeStyle;rounded=0;html=1;labelBackgroundColor=none;startFill=1;startSize=4;endArrow=blockThin;endFill=1;endSize=4;jettySize=auto;orthogonalLoop=1;strokeColor=#4284F3;strokeWidth=2;fontSize=12;fontColor=#000000;align=center;dashed=0;" parent="1" source="706" target="711" edge="1">
          <mxGeometry relative="1" as="geometry" />
        </mxCell>
        <mxCell id="706" value="Analytics" style="rounded=1;absoluteArcSize=1;arcSize=2;html=1;strokeColor=none;gradientColor=none;shadow=0;dashed=0;strokeColor=none;fontSize=12;fontColor=#9E9E9E;align=left;verticalAlign=top;spacing=10;spacingTop=-4;fillColor=#FFF8E1;" parent="1" vertex="1">
          <mxGeometry x="250" y="290" width="120" height="100" as="geometry" />
        </mxCell>
        <mxCell id="714" style="edgeStyle=orthogonalEdgeStyle;rounded=0;html=1;labelBackgroundColor=none;startFill=1;startSize=4;endArrow=blockThin;endFill=1;endSize=4;jettySize=auto;orthogonalLoop=1;strokeColor=#4284F3;strokeWidth=2;fontSize=12;fontColor=#000000;align=center;dashed=0;" parent="1" source="707" target="711" edge="1">
          <mxGeometry relative="1" as="geometry">
            <Array as="points">
              <mxPoint x="560" y="465" />
            </Array>
          </mxGeometry>
        </mxCell>
        <mxCell id="707" value="Reporting" style="rounded=1;absoluteArcSize=1;arcSize=2;html=1;strokeColor=none;gradientColor=none;shadow=0;dashed=0;strokeColor=none;fontSize=12;fontColor=#9E9E9E;align=left;verticalAlign=top;spacing=10;spacingTop=-4;fillColor=#F1F8E9;" parent="1" vertex="1">
          <mxGeometry x="250" y="410" width="120" height="110" as="geometry" />
        </mxCell>
        <mxCell id="2" value="Architecture: Cobalt v3.21" style="fillColor=#4DA1F5;strokeColor=none;shadow=1;gradientColor=none;fontSize=14;align=left;spacingLeft=50;fontColor=#ffffff;html=1;" parent="1" vertex="1">
          <mxGeometry x="230" y="40" width="660" height="40" as="geometry" />
        </mxCell>
        <mxCell id="693" value="" style="strokeColor=#dddddd;fillColor=#ffffff;shadow=1;strokeWidth=1;rounded=1;absoluteArcSize=1;arcSize=2;fontSize=10;fontColor=#9E9E9E;align=center;html=1;" parent="1" vertex="1">
          <mxGeometry x="280" y="318" width="60" height="60" as="geometry" />
        </mxCell>
        <mxCell id="694" value="" style="dashed=0;connectable=0;html=1;fillColor=#5184F3;strokeColor=none;shape=mxgraph.gcp2.google_analytics;part=1;labelPosition=right;verticalLabelPosition=middle;align=left;verticalAlign=middle;spacingLeft=5;fontColor=#999999;fontSize=12;" parent="693" vertex="1">
          <mxGeometry width="45" height="45" relative="1" as="geometry">
            <mxPoint x="5" y="7" as="offset" />
          </mxGeometry>
        </mxCell>
        <mxCell id="695" value="" style="strokeColor=#dddddd;fillColor=#ffffff;shadow=1;strokeWidth=1;rounded=1;absoluteArcSize=1;arcSize=2;labelPosition=center;verticalLabelPosition=middle;align=center;verticalAlign=bottom;spacingLeft=0;fontColor=#999999;fontSize=12;whiteSpace=wrap;spacingBottom=2;html=1;" parent="1" vertex="1">
          <mxGeometry x="280" y="440" width="60" height="67" as="geometry" />
        </mxCell>
        <mxCell id="696" value="" style="dashed=0;connectable=0;html=1;fillColor=#757575;strokeColor=none;shape=mxgraph.gcp2.list;part=1;" parent="695" vertex="1">
          <mxGeometry x="0.5" width="44.5" height="50" relative="1" as="geometry">
            <mxPoint x="-22.25" y="10" as="offset" />
          </mxGeometry>
        </mxCell>
        <mxCell id="715" style="edgeStyle=orthogonalEdgeStyle;rounded=0;html=1;labelBackgroundColor=none;startFill=1;startSize=4;endArrow=blockThin;endFill=1;endSize=4;jettySize=auto;orthogonalLoop=1;strokeColor=#4284F3;strokeWidth=2;fontSize=12;fontColor=#000000;align=center;dashed=0;" parent="1" source="bN5QILnUEAshqW3xWmmT-748" target="bN5QILnUEAshqW3xWmmT-752" edge="1">
          <mxGeometry relative="1" as="geometry" />
        </mxCell>
        <mxCell id="719" style="edgeStyle=orthogonalEdgeStyle;rounded=0;html=1;labelBackgroundColor=none;startFill=1;startSize=4;endArrow=blockThin;endFill=1;endSize=4;jettySize=auto;orthogonalLoop=1;strokeColor=#4284F3;strokeWidth=2;fontSize=12;fontColor=#000000;align=center;dashed=0;" parent="1" source="bN5QILnUEAshqW3xWmmT-750" target="705" edge="1">
          <mxGeometry relative="1" as="geometry">
            <Array as="points">
              <mxPoint x="740" y="160" />
              <mxPoint x="640" y="160" />
              <mxPoint x="640" y="200" />
            </Array>
          </mxGeometry>
        </mxCell>
        <mxCell id="716" style="edgeStyle=orthogonalEdgeStyle;rounded=0;html=1;labelBackgroundColor=none;startFill=1;startSize=4;endArrow=blockThin;endFill=1;endSize=4;jettySize=auto;orthogonalLoop=1;strokeColor=#4284F3;strokeWidth=2;fontSize=12;fontColor=#000000;align=center;dashed=0;" parent="1" source="bN5QILnUEAshqW3xWmmT-752" target="bN5QILnUEAshqW3xWmmT-750" edge="1">
          <mxGeometry relative="1" as="geometry">
            <Array as="points">
              <mxPoint x="860" y="280" />
              <mxPoint x="860" y="160" />
            </Array>
          </mxGeometry>
        </mxCell>
        <mxCell id="717" style="edgeStyle=orthogonalEdgeStyle;rounded=0;html=1;labelBackgroundColor=none;startFill=1;startSize=4;endArrow=blockThin;endFill=1;endSize=4;jettySize=auto;orthogonalLoop=1;strokeColor=#4284F3;strokeWidth=2;fontSize=12;fontColor=#000000;align=center;dashed=0;" parent="1" source="bN5QILnUEAshqW3xWmmT-752" target="bN5QILnUEAshqW3xWmmT-754" edge="1">
          <mxGeometry relative="1" as="geometry">
            <Array as="points">
              <mxPoint x="860" y="280" />
              <mxPoint x="860" y="370" />
            </Array>
          </mxGeometry>
        </mxCell>
        <mxCell id="bN5QILnUEAshqW3xWmmT-748" value="" style="strokeColor=#dddddd;shadow=1;strokeWidth=1;rounded=1;absoluteArcSize=1;arcSize=2;" parent="1" vertex="1">
          <mxGeometry x="480" y="250" width="160" height="60" as="geometry" />
        </mxCell>
        <mxCell id="bN5QILnUEAshqW3xWmmT-749" value="&lt;font color=&quot;#000000&quot;&gt;Export Data&lt;/font&gt;&lt;br&gt;Cloud Storage" style="editableCssRules=.*;html=1;fontColor=#999999;shape=image;verticalLabelPosition=middle;verticalAlign=middle;labelPosition=right;align=left;spacingLeft=20;part=1;points=[];imageAspect=0;image=data:image/svg+xml,PHN2ZyB4bWxucz0iaHR0cDovL3d3dy53My5vcmcvMjAwMC9zdmciIHhtbG5zOnY9Imh0dHBzOi8vdmVjdGEuaW8vbmFubyIgd2lkdGg9IjIwIiBoZWlnaHQ9IjE2IiB2aWV3Qm94PSIwIDAgMjAgMTYiPiYjeGE7CTxzdHlsZSB0eXBlPSJ0ZXh0L2NzcyI+JiN4YTsJLnN0MHtmaWxsOiM0Mjg1ZjQ7fSYjeGE7CS5zdDF7ZmlsbDojNjY5ZGY2O30mI3hhOwkuc3Qye2ZpbGw6I2FlY2JmYTt9JiN4YTsJLnN0M3tmaWxsOiNmZmY7fSYjeGE7CTwvc3R5bGU+JiN4YTsJPHBhdGggY2xhc3M9InN0MiIgZD0iTTAgMGgyMHY3SDB6Ii8+JiN4YTsJPHBhdGggY2xhc3M9InN0MSIgZD0iTTE4IDBoMnY3aC0yeiIvPiYjeGE7CTxwYXRoIGNsYXNzPSJzdDAiIGQ9Ik0xOCA3bDItN2gtMnoiLz4mI3hhOwk8cGF0aCBjbGFzcz0ic3QxIiBkPSJNMCAwaDJ2N0gweiIvPiYjeGE7CTxnIGNsYXNzPSJzdDMiPiYjeGE7CQk8cGF0aCBkPSJNNCAzaDZ2MUg0eiIvPiYjeGE7CQk8cmVjdCB4PSIxMyIgeT0iMiIgd2lkdGg9IjMiIGhlaWdodD0iMyIgcng9IjEuNSIvPiYjeGE7CTwvZz4mI3hhOwk8cGF0aCBjbGFzcz0ic3QyIiBkPSJNMCA5aDIwdjdIMHoiLz4mI3hhOwk8cGF0aCBjbGFzcz0ic3QxIiBkPSJNMTggOWgydjdoLTJ6Ii8+JiN4YTsJPHBhdGggY2xhc3M9InN0MCIgZD0iTTE4IDE2bDItN2gtMnoiLz4mI3hhOwk8cGF0aCBjbGFzcz0ic3QxIiBkPSJNMCA5aDJ2N0gweiIvPiYjeGE7CTxnIGNsYXNzPSJzdDMiPiYjeGE7CQk8cGF0aCBkPSJNNCAxMmg2djFINHoiLz4mI3hhOwkJPHJlY3QgeD0iMTMiIHk9IjExIiB3aWR0aD0iMyIgaGVpZ2h0PSIzIiByeD0iMS41Ii8+JiN4YTsJPC9nPiYjeGE7PC9zdmc+;" parent="bN5QILnUEAshqW3xWmmT-748" vertex="1">
          <mxGeometry width="30" height="24" relative="1" as="geometry">
            <mxPoint x="15" y="18" as="offset" />
          </mxGeometry>
        </mxCell>
        <mxCell id="bN5QILnUEAshqW3xWmmT-752" value="" style="strokeColor=#dddddd;shadow=1;strokeWidth=1;rounded=1;absoluteArcSize=1;arcSize=2;" parent="1" vertex="1">
          <mxGeometry x="665" y="250" width="160" height="60" as="geometry" />
        </mxCell>
        <mxCell id="bN5QILnUEAshqW3xWmmT-753" value="&lt;font color=&quot;#000000&quot;&gt;Id matching&lt;/font&gt;&lt;br&gt;Cloud Dataflow" style="editableCssRules=.*;html=1;fontColor=#999999;shape=image;verticalLabelPosition=middle;verticalAlign=middle;labelPosition=right;align=left;spacingLeft=20;part=1;points=[];imageAspect=0;image=data:image/svg+xml,PHN2ZyB4bWxucz0iaHR0cDovL3d3dy53My5vcmcvMjAwMC9zdmciIHhtbG5zOnY9Imh0dHBzOi8vdmVjdGEuaW8vbmFubyIgd2lkdGg9IjE0LjUxOTk5OTUwNDA4OTM1NSIgaGVpZ2h0PSIyMCIgdmlld0JveD0iMCAwIDE0LjUxOTk5OTUwNDA4OTM1NSAyMCI+JiN4YTsJPHN0eWxlIHR5cGU9InRleHQvY3NzIj4mI3hhOwkuc3Qwe2ZpbGwtcnVsZTpldmVub2RkfSYjeGE7CS5zdDF7ZmlsbDojNjY5ZGY2O30mI3hhOwkuc3Qye2ZpbGw6I2FlY2JmYTt9JiN4YTsJLnN0M3tmaWxsOiM0Mjg1ZjQ7fSYjeGE7CTwvc3R5bGU+JiN4YTsJPGcgY2xhc3M9InN0MCI+JiN4YTsJCTxwYXRoIGNsYXNzPSJzdDEiIGQ9Ik03LjM3IDIuMDNsLTEuNzIuOTYgMS41MiAxLjUtLjAyIDEuNzMgMS4wMi4wMS4wMi0xLjczIDQuMjQgMi41Ni0uMDEgMS4wNyAxLjc3LjAzVjYuMTFMOS4wNSAzLjA0bC0uMjctLjk0eiIvPiYjeGE7CQk8cGF0aCBjbGFzcz0ic3QyIiBkPSJNNy4zNiAyLjAzbC0xLjQyLjM1LS4yOS42MUwuMzkgNS45Mi4zNiA3Ljk3IDIuMTQgOGwuMDItMS4wNyA0LjMxLTIuNDUtLjAyIDEuNzMuODYuMDEuMDYtNC4xOXoiLz4mI3hhOwkJPGcgY2xhc3M9InN0MSI+JiN4YTsJCQk8cGF0aCBkPSJNNy4zNiAyLjAzTDMuOTUgMCAyLjIxLjk1bDMuNDQgMi4wNCAxLjcyLS45NnptLjcxIDExLjc2bC0xLjcyLS4wMi0uMDIgMS43Mi44MiAyLjQ4IDEuNDItLjEyLjI5LS44NSA1LjI3LTIuOTMuMDMtMi4wOS0xLjc5LS4wMi0uMDIgMS4xLTQuMyAyLjQ1eiIvPiYjeGE7CQkJPHBhdGggZD0iTTcuMTUgMTcuOTdsLTMuNDYgMS45NGgtLjA1bC0xLjY2LS45OSAzLjQ5LTEuOTYgMS42OCAxLjAxeiIvPiYjeGE7CQk8L2c+JiN4YTsJCTxwYXRoIGNsYXNzPSJzdDMiIGQ9Ik0xMC44OC4wOWgtLjA1TDcuMzcgMi4wM2wxLjY4IDEuMDEgMy40OS0xLjk2ek0xMC42MiAyMGgtLjA1bC0zLjQyLTIuMDNoMCAwIDBsMS43Mi0uOTYgMy40NCAyLjA0eiIvPiYjeGE7CQk8cGF0aCBjbGFzcz0ic3QyIiBkPSJNLjMzIDEzLjg5di0yaDEuNzZsLS4wMSAxLjA0IDQuMjUgMi41Ni4wMi0xLjcyLjg2LjAxLS4wNiA0LjE4LTEuNjgtMXoiLz4mI3hhOwk8L2c+JiN4YTsJPGNpcmNsZSBjbGFzcz0ic3QyIiBjeD0iMTMuMzgiIGN5PSIxMC4wNCIgcj0iMS4xNCIvPiYjeGE7CTxjaXJjbGUgY2xhc3M9InN0MiIgY3g9IjEuMTQiIGN5PSI5Ljg4IiByPSIxLjE0Ii8+JiN4YTsJPGNpcmNsZSBjbGFzcz0ic3QyIiBjeD0iNy4zMiIgY3k9IjcuOTkiIHI9IjEuMTQiLz4mI3hhOwk8Y2lyY2xlIGNsYXNzPSJzdDIiIGN4PSI3LjIzIiBjeT0iMTIiIHI9IjEuMTQiLz4mI3hhOzwvc3ZnPg==;" parent="bN5QILnUEAshqW3xWmmT-752" vertex="1">
          <mxGeometry width="22" height="30" relative="1" as="geometry">
            <mxPoint x="19" y="15" as="offset" />
          </mxGeometry>
        </mxCell>
        <mxCell id="bN5QILnUEAshqW3xWmmT-750" value="" style="strokeColor=#dddddd;shadow=1;strokeWidth=1;rounded=1;absoluteArcSize=1;arcSize=2;" parent="1" vertex="1">
          <mxGeometry x="665" y="130" width="160" height="60" as="geometry" />
        </mxCell>
        <mxCell id="bN5QILnUEAshqW3xWmmT-751" value="&lt;font color=&quot;#000000&quot;&gt;Relevant Users&lt;/font&gt;&lt;br&gt;Cloud Storage" style="editableCssRules=.*;html=1;fontColor=#999999;shape=image;verticalLabelPosition=middle;verticalAlign=middle;labelPosition=right;align=left;spacingLeft=20;part=1;points=[];imageAspect=0;image=data:image/svg+xml,PHN2ZyB4bWxucz0iaHR0cDovL3d3dy53My5vcmcvMjAwMC9zdmciIHhtbG5zOnY9Imh0dHBzOi8vdmVjdGEuaW8vbmFubyIgd2lkdGg9IjIwIiBoZWlnaHQ9IjE2IiB2aWV3Qm94PSIwIDAgMjAgMTYiPiYjeGE7CTxzdHlsZSB0eXBlPSJ0ZXh0L2NzcyI+JiN4YTsJLnN0MHtmaWxsOiM0Mjg1ZjQ7fSYjeGE7CS5zdDF7ZmlsbDojNjY5ZGY2O30mI3hhOwkuc3Qye2ZpbGw6I2FlY2JmYTt9JiN4YTsJLnN0M3tmaWxsOiNmZmY7fSYjeGE7CTwvc3R5bGU+JiN4YTsJPHBhdGggY2xhc3M9InN0MiIgZD0iTTAgMGgyMHY3SDB6Ii8+JiN4YTsJPHBhdGggY2xhc3M9InN0MSIgZD0iTTE4IDBoMnY3aC0yeiIvPiYjeGE7CTxwYXRoIGNsYXNzPSJzdDAiIGQ9Ik0xOCA3bDItN2gtMnoiLz4mI3hhOwk8cGF0aCBjbGFzcz0ic3QxIiBkPSJNMCAwaDJ2N0gweiIvPiYjeGE7CTxnIGNsYXNzPSJzdDMiPiYjeGE7CQk8cGF0aCBkPSJNNCAzaDZ2MUg0eiIvPiYjeGE7CQk8cmVjdCB4PSIxMyIgeT0iMiIgd2lkdGg9IjMiIGhlaWdodD0iMyIgcng9IjEuNSIvPiYjeGE7CTwvZz4mI3hhOwk8cGF0aCBjbGFzcz0ic3QyIiBkPSJNMCA5aDIwdjdIMHoiLz4mI3hhOwk8cGF0aCBjbGFzcz0ic3QxIiBkPSJNMTggOWgydjdoLTJ6Ii8+JiN4YTsJPHBhdGggY2xhc3M9InN0MCIgZD0iTTE4IDE2bDItN2gtMnoiLz4mI3hhOwk8cGF0aCBjbGFzcz0ic3QxIiBkPSJNMCA5aDJ2N0gweiIvPiYjeGE7CTxnIGNsYXNzPSJzdDMiPiYjeGE7CQk8cGF0aCBkPSJNNCAxMmg2djFINHoiLz4mI3hhOwkJPHJlY3QgeD0iMTMiIHk9IjExIiB3aWR0aD0iMyIgaGVpZ2h0PSIzIiByeD0iMS41Ii8+JiN4YTsJPC9nPiYjeGE7PC9zdmc+;" parent="bN5QILnUEAshqW3xWmmT-750" vertex="1">
          <mxGeometry width="30" height="24" relative="1" as="geometry">
            <mxPoint x="15" y="18" as="offset" />
          </mxGeometry>
        </mxCell>
        <mxCell id="bN5QILnUEAshqW3xWmmT-754" value="" style="strokeColor=#dddddd;shadow=1;strokeWidth=1;rounded=1;absoluteArcSize=1;arcSize=2;" parent="1" vertex="1">
          <mxGeometry x="665" y="340" width="160" height="60" as="geometry" />
        </mxCell>
        <mxCell id="bN5QILnUEAshqW3xWmmT-755" value="&lt;font color=&quot;#000000&quot;&gt;Reference Table&lt;/font&gt;&lt;br&gt;BigQuery" style="editableCssRules=.*;html=1;fontColor=#999999;shape=image;verticalLabelPosition=middle;verticalAlign=middle;labelPosition=right;align=left;spacingLeft=20;part=1;points=[];imageAspect=0;image=data:image/svg+xml,PHN2ZyB4bWxucz0iaHR0cDovL3d3dy53My5vcmcvMjAwMC9zdmciIHhtbG5zOnY9Imh0dHBzOi8vdmVjdGEuaW8vbmFubyIgd2lkdGg9IjIwLjAwMTA0NTIyNzA1MDc4IiBoZWlnaHQ9IjIwLjAwMTA0NTIyNzA1MDc4IiBmaWxsLXJ1bGU9ImV2ZW5vZGQiIHZpZXdCb3g9IjAgMCAyMC4wMDEwNDUyMjcwNTA3OCAyMC4wMDEwNDUyMjcwNTA3OCI+JiN4YTsJPHN0eWxlIHR5cGU9InRleHQvY3NzIj4mI3hhOwkuc3Qwe2ZpbGw6I2FlY2JmYTt9JiN4YTsJLnN0MXtmaWxsOiM2NjlkZjY7fSYjeGE7CS5zdDJ7ZmlsbDojNDI4NWY0O30mI3hhOwk8L3N0eWxlPiYjeGE7CTxwYXRoIGNsYXNzPSJzdDAiIGQ9Ik00LjczIDguODN2Mi42M2E0LjkxIDQuOTEgMCAwIDAgMS43MSAxLjc0VjguODN6Ii8+JiN4YTsJPHBhdGggY2xhc3M9InN0MSIgZD0iTTcuODkgNi40MXY3LjUzQTcuNjIgNy42MiAwIDAgMCA5IDE0YTggOCAwIDAgMCAxIDBWNi40MXoiLz4mI3hhOwk8cGF0aCBjbGFzcz0ic3QwIiBkPSJNMTEuNjQgOS44NnYzLjI5YTUgNSAwIDAgMCAxLjctMS44MlY5Ljg2eiIvPiYjeGE7CTxwYXRoIGNsYXNzPSJzdDIiIGQ9Ik0xNS43NCAxNC4zMmwtMS40MiAxLjQyYS40Mi40MiAwIDAgMCAwIC42bDMuNTQgMy41NGEuNDIuNDIgMCAwIDAgLjU5IDBsMS40My0xLjQzYS40Mi40MiAwIDAgMCAwLS41OWwtMy41NC0zLjU0YS40Mi40MiAwIDAgMC0uNiAwIi8+JiN4YTsJPHBhdGggY2xhc3M9InN0MSIgZD0iTTkgMGE5IDkgMCAxIDAgMCAxOEE5IDkgMCAxIDAgOSAwbTAgMTUuNjlhNi42OCA2LjY4IDAgMCAxIC4wMDctMTMuMzYgNi42OCA2LjY4IDAgMCAxIDQuNzI3IDExLjQwM0E2LjY4IDYuNjggMCAwIDEgOSAxNS42OSIvPiYjeGE7PC9zdmc+;" parent="bN5QILnUEAshqW3xWmmT-754" vertex="1">
          <mxGeometry width="30" height="30" relative="1" as="geometry">
            <mxPoint x="15" y="15" as="offset" />
          </mxGeometry>
        </mxCell>
        <mxCell id="7k9vSq7eUGEjjqr-b66u-719" value="" style="shape=image;verticalLabelPosition=bottom;labelBackgroundColor=default;verticalAlign=top;aspect=fixed;imageAspect=0;image=data:image/png,iVBORw0KGgoAAAANSUhEUgAAAOEAAADhCAMAAAAJbSJIAAAA81BMVEUAiuP///8Ai+P///33//8AieT6//8mjdcnjdn//v8Ai+T///v8/////v0AiuYAiOHy//8Ag90AgNYAf9sAgtQAhuQAi+AAgM8Ag9kAg98AfNMAi+cAiOcAgNUAgM3s///k+P2VvuHd+vuZyuja8fi63u+01ezF5fRbo9YAes3f9P/O7Pctjs+gz+WJv+GFvOU1mddTpOFGmtN3r9hnsdy34O2LweEAeNUngr0RhMk/k9uq1+yFutjQ9PpzseSExe6tz+rQ7f6EuORlqtVtreOVyODA2+47lc8efcPC6vV4tNhTqNeZ1fB9wd5Eod/o8PWAsNHI7Lj5AAAW20lEQVR4nO1dDVvaShaemWQCZDKZBJIQEEhagsQSLUXlLnJ1vddWb+3d7v7/X7MzE9CkDegqIHQ5ffqUar7enDPnew4A/uoE3voB1k57hLtPe4S7T3uEu097hLtPe4S7T3uEu097hLtP/48IK5wopMquEYT8qZ+FEIpjiw7dcqJQMZSC5y5CSFVNU3eRLPI8hFRNyuXS7lG5dGcV8PZnhBRqZYB3kVol9Vk8VBS1hDHaPWKgpCrPklLIEYIdJARK2rOkdI9wa2mPcI9w+2mPcI9w+2mP8P8aIUL8bIBc4fyJC2H+fx29EY7F9AqEWKDBuqfzTwgDZGLg8T/bRi9HiIGJgMtqNdPjn7EpAhUTo61j4msQAtAYdfu9jyUXDN/NaMjeCMhCejlCpAP7xCI8coxKrdP5QWe/EELguXcWiT52VXJeu3ovSKXWr8RDLqdjaAzd326p1fbr9frRPwJ41dg6i/IKKcWt4dnHOqpNodXktkKv9uB581fSNMJcMOyBSaj0ax5XpDG0kq3D9ypdirh994DTJ9onvvhwcwCPazrbOoyv8Wm4yT/onFOjW0UmwiOqXiDOyjcCspBeg9BErPNVgcd88SGvMaUDh5uQXwkhBnp9QLRxU6Zd6wE8YfxHb4RjMb0GodeeEu33o4bd9pCZQBgL//QX4qHOcGwQJeJ06SD3CgbJ9pkK8Lp1aPdmvzEcbHeV0EHygltGr0Ho/7M7I19nn7v/9NH2rcLXWXzk2b7v28z3MdKZ7SMZFW8bvTaLkdZ3Nv/cz6d9nmaPcPtpj3BlCB810obf0wYQvrGq3QRCIPj2ZlZlQ1I6w/YWIDeD8KH14w0wbgQhbriu3eDkNjafi1sXQhknimoGq9VKn+6714e3t7eH19377522zdKix2Yc9TUh1IUGxSZuXtyfh5rsgJw3Nqrh9KxUNU3cwmATKYF1Smm19HGgQgUqSoUqVDanQkpEu6fVix3GAxJzPaBytHqE6UEI28l1AAnRFKoY/OxK+tcQzZ6UKEZ077gbCZfXwkOuMN3OscWxVCqQUEkw7dQVn4j4MYSD2N+EYl0HQm4TajehwFKRoAQu2R0oBBZWBFrCf0SM4/oGNOvKEXIlyXB9ytE83TJNogTPiuU7hBBwgMlAMKuouzpDnK2EhLG9bjauAWHjLuLa5cm293RtWrENzLXajJUj9MBdQFIOPsFDavAjSDBaMxNXjtBNAq4rIZkrz4Vk8PdAlQoJJzuEEGEdTC7nOkaZseoRaFZwhZXkypYvxnNHX2ciebUIddPpQ0VaO4kiBaJQLRz0+/1BqEJu68XWlMpMDXGMFN77eI19OCtEiJCJGicw2xdPuLgStf9x2Km3q22nU7rqie0dioSZIuQrNiitU9WsECFnhHlnVbKn8IWmTodN7OIDk9s9E+Ba6VijpKJU5i+CGpR0uT5dm5yuEiEDzX7qgM6fntJoVMXcCTB5NKVjJKTRTy65IzdfpfwlVKjVWWNRboUIdc++gZWskFKl1wG6aHqTmRqhikwXeZ0+UeYvoiJcOzq21wZwpZrGq0dkDrAilei0DjweJEkJRPOMFED1vkKyjFY+OIuFNOvVyQosAnp6xecJ9moQyl/o7CbrjfKIsF/sWSM8CWllxuXUbsYe+jlWZLKYhXCarUsJpW/JNNFzi5Wr4yFC1UFmN6NikLDDH6ToSM+NjfQ4Qg2FKJRMiwKpAwE7BebazSNOzVoDt6SXJziLN4gQiT1fYKg9mAqhSbSY6cWBAwLVWfnY4IZDeEBBCf98HMM6vzCzneH9de+PD2EY/dE/fHeTVG0uq/i5ufNVIeQv1e4SGc2nEA0yaOrFTcOmjlqj9LCKyGxo4e24bBYWJ81GJ55yR0HIM2e2QjjTrcF4WLVTyd0oQuxE5NHcc786dsVDoIKT+JM1o/Q4Lez9Oer4DLOfj0PALnVD6f7xsJmbFRGTiRwBtfpxm59QcM66EIqHZkOYcbYpiZzZDQruCQ78E35QOD0b1psuFu5e7kAkFQmudy0otTOdX3p2fa6fBqPq8yoiK0KIALZPsgdT+sVefH+OYHh9U2rabAEb0AEwmzcB9+4KNkemN9BEDgSJ9bgc54qkVDQM93NHG6Mld+baHrjcBxL50uKLYta5lotvEcKKQqJEppaL1sHKEQpq5/YT09BZmAyVj8S1iBDMYmWBgDsZcHgUGguDTGKQIOZycvCEqK5K0yCc5K5D+9XF/gGeFWiEicGFqwl3IuH1LImhK9yfVSTEJ9TNynSpe5PzuWF3cYoJy6fygGzVxEUNm2Y94paBQ6jQfD4rH01TYsWYPRF6rQghQK13uTcMr14YLXDh1YVD8GBZ5biAirQZfFVWJDRlHpooQYL15WZxVesQNQ7zR784wcSFVpgSmjGtimFIT527uiJ+FhDnvxVGaXl+YFW6FFRzqpRqyYvr93xJczPx6MGLLR1G2Du5+nz2pW8Jh5dmDeNxdfmNVoOQO9jOh6xeV6zJC4N2dgCaPZod1iHMe+zUXOz7jVppHIgc5JyHHKwRL/fAV+bT1MPssUrQeVLJLbgQwrFYgw9MrCjWfRMLo8AtHwP2pCf8+hlCg7txA2fpQlyZT9MJcgjD+ssyhFgHzT6RcbEhSzrcso5sHYhNABiJbA8+On50fysip3DloiWvc1U81CdBzvtYFrUvI+4I3Gkz9gl7T6k1cpGe22vUnuby6XRQldxdO8L8iJQPzkv1jD19lARRjrtnXotl/SN00ImokbmX9h3gxfp0ZV7bRF0NQtwJyJxDojw1aCLUymlLxNhIy/kBx/4SgVkbwheuQ8Dih2tUxHobiTgwt8q4E1Tr5xCGzSXlqxVKaW4dhh30RFSzgOzHRSYK/oO2jlh+GQqV8y17L2Ik7rqlFGM9r0s5whfy0ImUjJAqMpP6Q7KH6agTZpiowHt3cW/OyqT0B4QvtoeJRR9ceIVHmUUxGEb2bfZm9NpdLDCr8rxBPaT5g19WbcEjI5tyDbyf78ldbbG5M0t9e93WggHkDPLB3BC/qKkLnwrWzdLFFRjVfj5EJLx5rJalD866ecjpYQPNjD6/0Kf5+BgEcoT92s8XEdEzHuZuFnSWVAVWhdC9zh6rwI8v2/LsjrmnVkkxco/mtrCXEQF2kbkZhVZn8RVXFh+2fs8fPa0uuafYYOs35TsQZbdM2rjRpZQ+utWHRZkCHvLicsapoVRd0guwMoRunDtYidrLpBTj+uXg5OJI4EtLEDNyu3DeASD+OSwou8n8YelHhOuXUuzknBpFLS3MtWHG/etEpVCLuqNqTTJxvnERn8CHjgalAg8bhc+McBYhhMui0VVZC/0hTy+pQpXP7qLDhd5zT2UZWNGi47jUbpn6TPPiP+FDBF+pwNsCXcpVDTMvcgiDv9aPkBvh49lTpUSn7SVSqjf7YrUZIklhhIdxZ+47m1cwmwQeNA+Kbqfn1wQNO2u3FqLdOc4iVKhVWnxPwEpaqlFkQwqBwfdWKtSt2HgoQioVJWwXFGzETJX7LEA4qC92vVfll4raUyBSD/MUkcHtBZLM/fmeOmh8yfGABvNr40R9zOQripXIQnA+TYERytkmSg5tr7AWu1qEuj0lZL46+DOS0BHHF9UFAa6/z3U0wN6DbZE+9UwQCDRuTJDWX7KPrHvtQeZ0hf7O1h1byAYCkUGav36Fm204thd0cnt2l2YREng2z5fpfj/T7aCQQwEd5Yr8ovqbKyFQGOMC/3WlCNNmEieCdJ4iE46JmhQnF3QsAogsE4KSOcfAxmQePomum6AkDEleAhFunORPd0xgLvKhVtiLAdj9Y1hQgUQh0cQtyNbqXmeQy7NwB+jRsLPvsskmfXQuC+PGj2uZYXMSkuzp57UloxxWiRA5IZk/uiIrfINJPluLpTGs9yh5COMFGXcPMS53dvhCNGa/5L+2yqKQk5FS/s7s7uPsY/Hhxl2SUFhpbyI7pWlZYW4USZTYwmFJn13cztNBp/do8WQXLe03M89nH+eLon3Hm2FP94rruBFb9MGx43cM62BJlXSVCPlKHBBZl07dLtEfG5y2mdRDafcPOqiNIlGJmD2iIbpttVELPzjfCN8Zue4/OOUQ+TKVJUeGDljjLiCPjoVB6Im7rCtjlQhN/nQqhZmMtMGBDG6OGphhLNotcC2ZqgRm0vKC6dMmfjQqiLs7JLtKuSnp4LR7RkxOwfYoePDrFIGQOzSL9cyKpZQHPyeUGA9d+lyfitxneHg6LDtVpzQ66WvCVZEbLtJ3AAmxEowyaXnUinOlbcWgUdxkuqioAtyYdDVSybwfSu8bS4tPK5VS/i7b55AYOWMntzqpqhUEqvxIJMAMl+5tPddvYFbz6QKqKNrg/sKpH9VLn7rhrEQ6ZzD9WgfLyhYr72Q3J5dE8lC8XrllTXY607RJb976zJlHpELi/O7nXU+uUMwkyGxmEP3E/LMWXF6+t2Yl4flVxHaGZKG/th6EgCVcD0hdAo2Ci2RZI44Rrfq5J+QIdfuG6ysld7ps+crW9NPgSzFOl7TtrAehgKik36RACi6Se2rhs9z91BeGMa52FfrElhsOTryjca0ovForQq72k0jYgKe3PRkGDUY8KsjNB+MGhRu+6jHN9VMXUYWrrOOmzp7YxLgGHgI26UOiKVApuEiGuKJ/P2JpgiAHUQBuT5/goRARo9sGokNzwwhFFsXpGk+JqKBBItoX8+Y63V/LuTgu+kaDDClUO6mKHM8TWzXWsLNLJAvtOFQe1J4i9pjM49q0dV0IoFa4/XDunyJ/xA2DoVB+biVFJE8XJlYqWvL+m3+Ans47r2kfMHaPxoG0DpWZsIrvqRH/yuRFRfg6d7a50FRzQThg9S8Wj6mloXl0ZMXy4z9VtGmnKHDZGELg6a7ofk1tf0UEtRXZGlMRCBWo9eMqXsKAdDqBnXRzHR5CEMQ2I6Ko/ZEPNttB++NlW8DjHtZZP7XRhpAu6YqItJMWHot9JlhuQllAwhXnfpo/ue9blDz2CCmEv7RwOqqaAt8b8hAxbjY8z62Vb7p/BPIOkp2GFfXejRw7HTi8cIykyIgCuc8IsFpyOo2s+UNqwR/duO7LxNBTnaVrRSj9TMkk3Gh2Lj5d/fmR01k87BzVXPOptl5RrQNp/km00bgNh1/i7JSf/+mi3mzItuln6Ji1IsyhxYBJwvaLR2OK4Mt15daL/7UquanpLdL9f8X2rZdPt9nPidoWhK8Qn00hfOUOw5fPl9jQnKhXPqWkF76jXZHSl9Me4R7h9tMe4eoQSk0q/Gn95yoDKjB46bahNGfwqvtuCKGH0u1OnigposfvMkm/v+WnSEh8pQuWYwh04L4G3yYtvtjCJ9nX4nix+YAQpHtsc4wSQ975H+SZGB8A9FQ6bSsQIk9EVK1a6dvpTVITUxYycJK7IciXqbloend3JXGWbcodKy+/88bml5ocROdY9NlavQmeVeblpvrGObx0fjgaoaGl3WNUjcev/LqFzSHkUWt9oBAr0Ai5nMh6oS5jPWT3YeTos8BPDpDESBf9lfemc6zdsicD5u1ACLDeOIbKNKmX+kTp+jpmptOoim/JaAiErNpocWge8u1aQ2zkHxrwvlEPlcOd0TQYlQIyOBI7fN9HXQeB9tW0f37V1pF7C6O/ul+nIxvorDQ+H5yfdIAneOh1VRh1h+g183k2J6WY3VB63xLppYljY1z6KlJT5OsEcyn9dyhG9dz7XiK6LBTlsoMFDxNNpM5fullzswiRDtgYwpgB3RTTMnB7qsDp1TGhPafREyMG45BYSeNvaN2MuhR+YwJh+Qvn4Zfv5msW4sZ4aAL/C4WfuFHgNp8vuEQlU8etHRNtyNehlTA3NuCJW4pHteqdBu9dgdBth/Cwxp6X+n1rhAD7XyBnDVeMXsP22BU1vrmIXVB4X+Pr0EFm2VIO7Ub79HpgwRlC5nOE7utGuW5wnjf7TI3fXQ8cOH+fDO0/FS12sXsB4b9+4wjbAiGd1uIAqtGhACc0jetwhLb3VAFtOxBizIQurWPEEpV+bcYcQMtjN5yvnIdWx2QXKnzXjGh/YidcSqWmwSXJQ7YTPo0JdC6mpHdXHkUUnrY43HBSTQYkLDX6FI6bzWvFiMsqPK7VTrnotiRCzsPbo8Im1a1DKAu99QGlmkUJ7LUBO9WIFVlEu2GNW6hqUSTmMNQiql4f8id6J3kIqhHRwj+Z94qFuMF1KLptxqJaFn5xDjDw4whCGsUNwM7h9HcLar0SYEPOYOv3vtGzh5Zxz9gZ1zr/8r3WDiAUcop0r3PxaejYSFTfWY1/boveV6/u+d6nCzHjgjnDTx3fK5U9r+yXAfJLn4bejvil8m6ipDYzbvzz43QaHgyy+QOxWZufcNbl9JPXzXHfcJ5GZHUfOknzBbJ5K/sjpc/32m8c2DRC8Ijw8eMTnXeF40+eTZuWUpT5nGFhBkIh3B2wFhlacJXZj1f+5Qmb1zQPcyKZ680mA4qUBmZYhIGz6RcgbfzGTB5ZMHFwCxFiObqtzqld9xF3TpPv3FQgWfDXgefXv184afuCM7zo+Ac8zGLt5HvHx0u7R7cHoUyXgtiyLFVVxw2c9A1u+mM75aHePlblGHodOacBhNa4yv3X0QcoGoMK88XbhzDl4Thtbuo26pdEjQJijVLs9R5UQpUEQ2zfGCTkcf7YZ4lF1FAjPR+8Kuu9way+3A09uOf03f1EjZvaJKBduZWEjQxyUhtZSq/ZvOTxR71P3tcbf9MwaR9D9a54guY2IsROBLu/NWsuw595VN9qDpSpLeIG+yOxSmZ1SoOJdzOOW7VrJaj7n96dMfdKjLbbiXUoCywTC972B8cOAOUAjjuxZsRSudhjapWZPYZwBFouc+5CwqGbru0nA8pDyp2InsRCbMVQ7iWJytgf/ZtfUfuPHCiH2BVV79xaT2SqdFT7ysPIOkAHJhtDEk2Ap++GxTeReWZZJ6MTjTOo9tGCFtcinTSsct6TwU2XP8hnfoujSwuGokEd29NQs7pL5iVsE0IhjKZfKvutZh8GnZGhnDh3FpzaQkw9Fgecu5EBY9PzQNnpKnBk6jouOzcavbd3QkpNue3HZUwMX9BKXSXsgMY1DOrYFFWaWvLxOP4PhEOX+Qy0/hGQru3aHmgdRcrXZw4qfWOEQhjts+sT37QPodWZkshhblexyjqzGfAuPnnub9fQqpev+zemO7FIt93tnzRA8wO9bO5EbCE6Me0pVOMmN+TntbGinh79FZHLtv+v4zNbpNmO7gIyrXUCMuh0ugb53OzT8O7oRlO6NvufGxLfAKHYy4sT7sUMLCVIzHIofRr1Bh+FtN92zgmJLPI+wfZHhQQhJb0qGFnECjUaJRgXzVveOoTCqPnDS9XQojsXseSrxf3SM987ulR7NVbi/1UHd5hro4+hAa1pxwR2HGma1U+YDl42J2XDCHkIxNVkbRgPayY3erh68W3k+8hzy2XPw3rt7tuwaooxIHZ9FJdqYnhyqz2MkzY2Bfu3H6HY3sr5eODJ5BPTscmE+tA95LZwC6V5GV20JojBIBjL7gXXZek03l3QNGlIK3Km3LbJAQjyvzoW7SeeqYODtKsGieG0nN9MdGvIVhoMftytvqUI34z2CPcIt5/2CPcIt5/2CPcIt5/2CB+JqiWk450jhFBJK9gVXsjDsmjz3TXSvefykJIdlVJgltSC4QA/I6xQ9a5UKu8elUo/TBZbyENFUbXdJKtovkORpqlA+sSki20kRVQSCmZsFGmaHaZn6tJfi/YId5/2CHef9gh3n/YId5/2CHef9gh3n/YId5/2CHef/gsSxgVd+7haRwAAAABJRU5ErkJggg==;" vertex="1" parent="1">
          <mxGeometry x="450" y="100" width="40" height="40" as="geometry" />
        </mxCell>
        <mxCell id="7k9vSq7eUGEjjqr-b66u-721" style="edgeStyle=orthogonalEdgeStyle;rounded=0;html=1;labelBackgroundColor=none;startFill=1;startSize=4;endArrow=blockThin;endFill=1;endSize=4;jettySize=auto;orthogonalLoop=1;strokeColor=#4284F3;strokeWidth=2;fontSize=12;fontColor=#000000;align=center;dashed=0;entryX=1;entryY=0.336;entryDx=0;entryDy=0;entryPerimeter=0;" edge="1" parent="1" target="707">
          <mxGeometry relative="1" as="geometry">
            <mxPoint x="380" y="350" as="sourcePoint" />
            <mxPoint x="480" y="280" as="targetPoint" />
            <Array as="points">
              <mxPoint x="370" y="350" />
              <mxPoint x="370" y="351" />
              <mxPoint x="420" y="351" />
              <mxPoint x="420" y="447" />
            </Array>
          </mxGeometry>
        </mxCell>
        <mxCell id="7k9vSq7eUGEjjqr-b66u-723" value="" style="strokeColor=#dddddd;shadow=1;strokeWidth=1;rounded=1;absoluteArcSize=1;arcSize=2;" vertex="1" parent="1">
          <mxGeometry x="460" y="170" width="170" height="60" as="geometry" />
        </mxCell>
        <mxCell id="7k9vSq7eUGEjjqr-b66u-724" value="&lt;font color=&quot;#000000&quot;&gt;Provider Selection&lt;/font&gt;&lt;div&gt;&lt;font color=&quot;#000000&quot;&gt;Engine&lt;/font&gt;&lt;br&gt;Integration Storage&lt;/div&gt;" style="editableCssRules=.*;html=1;fontColor=#999999;shape=image;verticalLabelPosition=middle;verticalAlign=middle;labelPosition=right;align=left;spacingLeft=20;part=1;points=[];imageAspect=0;image=data:image/svg+xml,PHN2ZyB4bWxucz0iaHR0cDovL3d3dy53My5vcmcvMjAwMC9zdmciIHhtbG5zOnY9Imh0dHBzOi8vdmVjdGEuaW8vbmFubyIgd2lkdGg9IjIwIiBoZWlnaHQ9IjE2IiB2aWV3Qm94PSIwIDAgMjAgMTYiPiYjeGE7CTxzdHlsZSB0eXBlPSJ0ZXh0L2NzcyI+JiN4YTsJLnN0MHtmaWxsOiM0Mjg1ZjQ7fSYjeGE7CS5zdDF7ZmlsbDojNjY5ZGY2O30mI3hhOwkuc3Qye2ZpbGw6I2FlY2JmYTt9JiN4YTsJLnN0M3tmaWxsOiNmZmY7fSYjeGE7CTwvc3R5bGU+JiN4YTsJPHBhdGggY2xhc3M9InN0MiIgZD0iTTAgMGgyMHY3SDB6Ii8+JiN4YTsJPHBhdGggY2xhc3M9InN0MSIgZD0iTTE4IDBoMnY3aC0yeiIvPiYjeGE7CTxwYXRoIGNsYXNzPSJzdDAiIGQ9Ik0xOCA3bDItN2gtMnoiLz4mI3hhOwk8cGF0aCBjbGFzcz0ic3QxIiBkPSJNMCAwaDJ2N0gweiIvPiYjeGE7CTxnIGNsYXNzPSJzdDMiPiYjeGE7CQk8cGF0aCBkPSJNNCAzaDZ2MUg0eiIvPiYjeGE7CQk8cmVjdCB4PSIxMyIgeT0iMiIgd2lkdGg9IjMiIGhlaWdodD0iMyIgcng9IjEuNSIvPiYjeGE7CTwvZz4mI3hhOwk8cGF0aCBjbGFzcz0ic3QyIiBkPSJNMCA5aDIwdjdIMHoiLz4mI3hhOwk8cGF0aCBjbGFzcz0ic3QxIiBkPSJNMTggOWgydjdoLTJ6Ii8+JiN4YTsJPHBhdGggY2xhc3M9InN0MCIgZD0iTTE4IDE2bDItN2gtMnoiLz4mI3hhOwk8cGF0aCBjbGFzcz0ic3QxIiBkPSJNMCA5aDJ2N0gweiIvPiYjeGE7CTxnIGNsYXNzPSJzdDMiPiYjeGE7CQk8cGF0aCBkPSJNNCAxMmg2djFINHoiLz4mI3hhOwkJPHJlY3QgeD0iMTMiIHk9IjExIiB3aWR0aD0iMyIgaGVpZ2h0PSIzIiByeD0iMS41Ii8+JiN4YTsJPC9nPiYjeGE7PC9zdmc+;" vertex="1" parent="7k9vSq7eUGEjjqr-b66u-723">
          <mxGeometry width="30" height="24" relative="1" as="geometry">
            <mxPoint x="15" y="18" as="offset" />
          </mxGeometry>
        </mxCell>
        <mxCell id="7k9vSq7eUGEjjqr-b66u-730" value="" style="shape=image;verticalLabelPosition=bottom;labelBackgroundColor=default;verticalAlign=top;aspect=fixed;imageAspect=0;image=data:image/png,iVBORw0KGgoAAAANSUhEUgAAAOEAAADhCAMAAAAJbSJIAAAAhFBMVEX/mQD/////mAD/oSP/kQD/lQD/lAD/kAD/+vL/yZT/mwD/9en//fj/3Ln/7tz/9+3/oy3/48f/zZr/wH7/2LL/unD/0qX/7Nj/8eL/vXf/rEv/xIf/tGL/5s3/37//1q7/qDb/r1L/uGr/qED/xoz/rk//qkT/sVn/nxr/zJf/tmX/iQDeC0OnAAAMIElEQVR4nO1c6ZaivBbFmAQHVATnEYdSq+77v98lkBlQglj1pVf26h9djNnJyZnRS7r/NhKvC/5tdFOG3r8Mx9B+OIb2wzG0H46h/XAM7YdjaD8cQ/vhGNoPx9B+OIb2wzG0H46h/XAM7YdjaD8cQ/vhGNoPx9B+OIb2wzG0H46h/XAM7YdjaD8cQ/vhGNoPx9B+OIb2wzG0H46h/XAM7YdjaD8cQ/vhGNqPtxjm32i2OZwPoCFDgDD00SO8JOEAQ4w/TrP5XDZhmLILt6Nx0KHo7RcnqJBEMAcqubn6FD+nDojMJgo3m02I09uMaRozBBjuRr2OjmDhYTHS76BHsJoXeODtMD/Vx/opD/cn2bnhQBoRgo/tlL1vsoxCU5KmDPFgERTo5bj67CK4ZMf0Z4MvfvlWZ4927NSJ34Xwdqy9ZhV1ocmIDRmiUQU9gj2TVDxlhxbaSuEDv3oItWfDPTt1oc8B/rp0OpebogC0xBAtnhBM30wHjfp8wjUaUBrxQHsvZicCKgwATDsVuNanaMYQP1tCsmQ5IRDyI6oClE50OtomBSd24pAPHzyK250jqT3otxj2eroQUfmCQ3bgR6GBYunao7oOKFKpAzR5MpenTzMcH7dfHlHsOIxlUdrni4i5NKs0lBnSJFiop3xSYKWIfp7hKgYQIyp/AMGBUB+dMDsKbuU0xNoSqBLMt2E+S+hHnozF+nRJNrt4sQ8+yxBt0wGcfc0iAf/KxxLRBeBbyJOuBZ6yDjv5MeDODsfZI+CKX7d4ZBOaAmHsJwvy7M2HGHroAcq8EZ+v4piK6YwdOEuXo7PCUDElQrAzHSt0UhCqPmHqctwPozKXqBWGXrlzCAZ82FQP8hWRNyJjQVXIUpZgyCx7PkdCJ22KZAD+mD2shLDWIdWmfAtJNBiLayDPRj4OwG7oZ4z4ki597z20xFBMOTUPwnmRNiJTJhc6H1/ilFAs+RRxMY8MlqsULTEECRtgric8NGcHxEbkNt2npu9bCCA+0nNDbSP36++4iqG1FOMjRuiKtAMzvgjMpi99ukv3QoK56qTqh0vp7D+yhsLhZHPOd6bwsNmhBWbiyk8JO3LLR0PsUo53kwgfYyiGyDciu2YHmMphQYQQ6h4lLcR+aRQrFdGcIfspLTr6nsZQGBDmYYMLXxUmg0ykxbbjQgm5V7oK3+LYjGFqdeHgck+x6SKIU4+jwFAYODZotqqp/QA02J1yPsydu/NV5RFYpzNKdDfqwwwR3CyWIqqY7Bfnwf8KDNE3PcI2IjMgxAegeihgMskXXOgeLMct4+ujQYqmIUOEryVhzUrfh5LfRUNdtszEfDDVSf0DtKaXHqRkz7yjYBVdYJOcnrHXVpFY4BD2y2eSt87jvYdEmJk/aj15VCVHxbAQbvdmO/PEpSFDAPb6aysZaiaNrVMmtMwHH+VrxtWKYt6LFMkdF0O9Y8bwaWJBZ8iDxGHmWjJ1mZFi9m8C88fSK/daUBzrTydYXvQcVnsMgfdcQlWGwkZmG5FtvVxmmfJ8kFPcq9UzjMg76s8nOJosoxFDKOcus7g7DC+nNQ+8NYbcyBFSPHh4KJ51tvG4m66n31KzBPpKXiDH2ECvmjAUbkrK7+LTuJsk3WH3p6BLPW71MsFkf1Cnhe3KbI8yLTsuET+AYNJfdjSUXdkCQ8lCHXw9kVGwh56Ilia+0DssVUgtIAkfuV35Lo8jUpJgflA3iJ5qboWhZKD2hbC06NN4kvSlkslSaWyrMfWZun1cNsLKkRBBuSl7svra5gyljPyjcEvB8ybghjzdiFgbGTOBacTMigDD5+E8wPgqFnJaV04NGApfuOTpPBcoM+TaZYTBJv8f89O4/kzFjc3Oa8nDUp6/OMvlMJFS/vBC2Sh9TBlDHhFOIHOkua/N7hhDHijVyBACn3sB1/JNW7ylNkMpn1ZMx4o8ocKQ77AHy2CLcbGdixHNtga1ck58Oxxq6hoDhnyZWBwugadZVH3InZXYpwPjMS/f1iefLnS9fAXXBnUNhgFDNlolR0bP8VygtpmYjzBiN4thsfWNfB761xkGn0u9cFc57ib7cK1vASgUuSo8LEicUEsjOZ7MCu6ZNawnddxRan8NpVqELk+Y16dz6y49ng2fbsNIjo7ytQvoWk7Vh1YloHzm3+xb34dS7VqvGm06EtTH+Wq0LMs3N4NlgoFud79MWYq4+tg+Q6m8Kfs0yN8qJNQkNVbr4vI5dFVOKc40UWurezGmB5iXpIp9Hm8zlDZiZ+RnbjdCEK013z9Q9gdQ1lepxfDcWz5p6m1Zzrh3vIlCJXHd/Jt4Wd1cuJHnLa3HpH8KH8lPxEN+Xk5jmQkKuTdBV7TyKdWL4AWA3mx982gf0Vckaoq1hdQsPsTVEf6OF5to3M7vkVMRd+VVUM6IqE6YqM4RBJPVeKgF37VT4WYx/qVTgS8sLbCqMiQ9q0mWnBLVdL/StFGGn7pCalrlvpe+btVF6SZhkzxS5QeL63QaN3FKDw3h84zX9jMRMKF4KcnURFnahLGPtJdLYqpXyqSNWIgUnrburA1yUcb5UjTT3nYc0DWDRE57F10DSP6svneE/SnRG/By6JSjdzOpuDXoTRxEPCE1OcylFC2cTxclCVsAzlOCWdFhR948JigdMsAgnpaJjFlSuEHdAiCIk935vLuQthplwLh0/5MmEYKS96QWlaBiBOmNfhIf9yvSexX0hqthML4iw5Jp0x7hdGi/0/9MpgdCP/uXdd5+OKtvIRxD++EY2g/H0H5Yx5D4CMR9qPYT9BssYkjKMzj52UaL4/EYXc8XXMf+W8OQdFvHIy1jMo68l3FiLYaoUZtHmwAYFT6eyfGy2FGHYRrkHAaG/m67wOX1fILpq4HVYZiVCqLyuOE3AOB3Fb8ayf06DPOkSRCXflH3eQCvpFeBo/D5VOH2WvswzALRybk0Df1p5JnjYLU/LKJtPJ/P4/5R7MlW1pDUDvNpXP38Ccd4lwDyfQ5GFBgOWIlh3w7DVJfR3NfqL9axJNgGrCAyakPT5E9k+dBJ/Oe2g4Dl4l4Wu+tbfMgL2cE3+DOOgHkxLAN9b8MeUqBQVMpGyV8o1tSvOc0ftGGTZjXb8WnYtVJHTWe8/oVv1LXXg6x3Ny80UsXwuhJs5pf6a0GxExwvb7RfGwIgf8PmN9MttM3sdQ+OoeeNH1KBK9Ws10HT9msTpNL5+BZmP2tQpb0vxSxz4WbjLmjNg1rG3mdJkr69WG5OzOqTtMlu8rqAYR494XClcuzstx9byYyeUoYK8i/VqaKp0aLYJKvvXzs6xt9Zv2kjFtUvwrB71VpLRyhXnnQb1mhuaxQB40fJV8i90XoAW2OZLh7aHXWXO9jR/mdaq63ToNjwmxl4L/2UfDibD95eyyxZcY8KfcGkBse/IsrtfZ2vgZtmMRDcVnS1Tw7XDZZbKAyQd1TPj6Xh/DKRPubLJrjW96XN8zTo2U9IrA793SCNBupWqLLPtCFO1K54ZeLOUuM17WG51PKom2eiwJPcQoZgfIjWmwGmcY/2Izp5FzzKime4e98upk8C3WCreIm5Jh3VqnW/9ytKePCcI53+5eEYbee7W/jwMkIZZe8R3nbzazSbjl99phJcNS84634I6u33N7OJ6To+/7mTFjAppE/y/vF7Pd//7XwpwKjsW7bWsDwXo5isa3XRfvdlJRDcvfreqylmZVFaZgyndb/TbyfnnXrG0ctvvoyxjMsDNBLev0zPtMyQCKt/evHzPGYYRo+qIDsV0lH9X1posW6RupE/VU0+hlhF4ZPQEwxMvs9rtzKTuiT3gjNpiv321Te/Ru5S67WnVFy728Pr7xTLsVycapXMTAb0geoa8S7DeKSHkS/Qm/ZTdu3nfj5VP8x+CnCznS1rqNgg92Jbjy/pSD5ZIc1CBXCZ94/T8aQouL3VfhTFpwdsGInUHMTHa8DEvc6cUTToJl/3+263u99vycMjx2oHH2+8/xer3EDFb73Vljp+YziG9sMxtB+Oof1wDO2HY2g/HEP74RjaD8fQfjiG9sMxtB+Oof1wDO2HY2g/HEP74RjaD8fQfjiG9sMxtB+Oof1wDO2HY2g/HEP74RjaD8fQfjiG9sMxtB+Oof1wDO2HY2g/Mob/Nrpe0v23kfwfY5OS/icHozkAAAAASUVORK5CYII=;" vertex="1" parent="1">
          <mxGeometry x="227.5" y="174" width="40" height="40" as="geometry" />
        </mxCell>
        <mxCell id="7k9vSq7eUGEjjqr-b66u-735" value="" style="shape=image;verticalLabelPosition=bottom;labelBackgroundColor=default;verticalAlign=top;aspect=fixed;imageAspect=0;image=https://img.icons8.com/color/200/google-cloud-platform.png;" vertex="1" parent="1">
          <mxGeometry x="295.5" y="169" width="50" height="50" as="geometry" />
        </mxCell>
        <mxCell id="7k9vSq7eUGEjjqr-b66u-736" value="" style="shape=image;verticalLabelPosition=bottom;labelBackgroundColor=default;verticalAlign=top;aspect=fixed;imageAspect=0;image=https://www.svgrepo.com/show/331732/microsoft-azure.svg;" vertex="1" parent="1">
          <mxGeometry x="220" y="220" width="55" height="55" as="geometry" />
        </mxCell>
        <mxCell id="7k9vSq7eUGEjjqr-b66u-737" value="" style="shape=image;verticalLabelPosition=bottom;labelBackgroundColor=default;verticalAlign=top;aspect=fixed;imageAspect=0;image=https://upload.wikimedia.org/wikipedia/commons/thumb/f/ff/DigitalOcean_logo.svg/512px-DigitalOcean_logo.svg.png;" vertex="1" parent="1">
          <mxGeometry x="290" y="220" width="61" height="61" as="geometry" />
        </mxCell>
        <mxCell id="7k9vSq7eUGEjjqr-b66u-738" value="" style="strokeColor=#dddddd;shadow=1;strokeWidth=1;rounded=1;absoluteArcSize=1;arcSize=2;" vertex="1" parent="1">
          <mxGeometry x="40" y="30" width="60" height="60" as="geometry" />
        </mxCell>
        <mxCell id="7k9vSq7eUGEjjqr-b66u-739" value="" style="editableCssRules=.*;html=1;fontColor=#999999;shape=image;verticalLabelPosition=middle;verticalAlign=middle;labelPosition=right;align=left;spacingLeft=20;part=1;points=[];imageAspect=0;image=data:image/svg+xml,PHN2ZyB4bWxucz0iaHR0cDovL3d3dy53My5vcmcvMjAwMC9zdmciIHhtbG5zOnY9Imh0dHBzOi8vdmVjdGEuaW8vbmFubyIgd2lkdGg9IjE5LjcwNjUzMTUyNDY1ODIwMyIgaGVpZ2h0PSIxOS45ODM4MjE4Njg4OTY0ODQiIGZpbGwtcnVsZT0iZXZlbm9kZCIgdmlld0JveD0iLTAuMDAwMjA5NTQ2OTY4MTA4MDQzMDcgMC4wMDAxNzcyNDA4Mjg2MzQyMzk3MyAxOS43MDY1MzE1MjQ2NTgyMDMgMTkuOTgzODIxODY4ODk2NDg0Ij4mI3hhOwk8c3R5bGUgdHlwZT0idGV4dC9jc3MiPiYjeGE7CS5zdDB7ZmlsbDojNDI4NWY0O30mI3hhOwkuc3Qxe2ZpbGw6IzY2OWRmNjt9JiN4YTsJPC9zdHlsZT4mI3hhOwk8cGF0aCBjbGFzcz0ic3QwIiBkPSJNMTAuMzQ1IDEwLjM5NnYtNC40M2gwYTEuMTQgMS4xNCAwIDAgMC0uNS0yLjE2NCAxLjE0IDEuMTQgMCAwIDAtLjUgMi4xNjR2NC40MmgtNC4yN3YtMi44MmExLjE0IDEuMTQgMCAwIDAtLjUzLTIuMTUgMS4xNCAxLjE0IDAgMCAwLS41MiAyLjE1djIuODNoLS4yMmEzLjgyIDMuODIgMCAwIDEtMi43MjItNi40ODUgMy44MiAzLjgyIDAgMCAxIDQuMTIyLS44OTUgNS4yMiA1LjIyIDAgMCAxIDkuNDQtLjA1IDQgNCAwIDAgMSAxLjIzLS4yaDBhMy44MyAzLjgzIDAgMSAxIDAgNy42NmgtLjI1di0yLjg2YTEuMTQgMS4xNCAwIDAgMC0uNTMtMi4xNDkgMS4xNCAxLjE0IDAgMCAwLS41MyAyLjE0OXYyLjgzeiIvPiYjeGE7CTxwYXRoIGNsYXNzPSJzdDEiIGQ9Ik01LjA3NSAxMy4zNTZhMiAyIDAgMCAxIDEuNTQgMiAyLjA3IDIuMDcgMCAwIDEtNC4xMS4zNTQgMi4wNyAyLjA3IDAgMCAxIDEuNTItMi4zNTR2LTIuOTZoMXptLS41MyAzYTEgMSAwIDEgMCAwLTIgMSAxIDAgMSAwIDAgMnptMTEuMDgtM2EyLjA3IDIuMDcgMCAwIDEtLjUzIDQuMDcxIDIuMDcgMi4wNyAwIDAgMS0uNTMtNC4wNzF2LTIuOTVoMS4wNnptLS41MyAzYTEgMSAwIDAgMCAuMzktMS45NCAxIDEgMCAwIDAtMS4yNjggMS4zMDcgMSAxIDAgMCAwIC44NzguNjMzem0tNC43NS0uNDNoMGEyLjA2IDIuMDYgMCAwIDEtLjUgNC4wNTggMi4wNiAyLjA2IDAgMCAxLS41LTQuMDU4di01LjVoMS4wNnptLS41NCAzYTEgMSAwIDAgMCAuNTUtMS44MzIgMSAxIDAgMCAwLTEuNDggMS4yMTIgMSAxIDAgMCAwIC45My42eiIvPiYjeGE7PC9zdmc+;" vertex="1" parent="7k9vSq7eUGEjjqr-b66u-738">
          <mxGeometry width="30" height="30" relative="1" as="geometry">
            <mxPoint x="15" y="15" as="offset" />
          </mxGeometry>
        </mxCell>
        <mxCell id="7k9vSq7eUGEjjqr-b66u-742" value="" style="strokeColor=#dddddd;shadow=1;strokeWidth=1;rounded=1;absoluteArcSize=1;arcSize=2;" vertex="1" parent="1">
          <mxGeometry x="100" y="189" width="57.5" height="61" as="geometry" />
        </mxCell>
        <mxCell id="7k9vSq7eUGEjjqr-b66u-743" value="OnPrem" style="editableCssRules=.*;html=1;fontColor=#999999;shape=image;verticalLabelPosition=middle;verticalAlign=middle;labelPosition=right;align=left;spacingLeft=20;part=1;points=[];imageAspect=0;image=data:image/svg+xml,PHN2ZyB4bWxucz0iaHR0cDovL3d3dy53My5vcmcvMjAwMC9zdmciIHhtbG5zOnY9Imh0dHBzOi8vdmVjdGEuaW8vbmFubyIgd2lkdGg9IjE0LjY1OTk5OTg0NzQxMjExIiBoZWlnaHQ9IjIwIiB2aWV3Qm94PSIwIDAgMTQuNjU5OTk5ODQ3NDEyMTEgMjAiPiYjeGE7CTxzdHlsZSB0eXBlPSJ0ZXh0L2NzcyI+JiN4YTsJLnN0MHtmaWxsOiM0Mjg1ZjQ7fSYjeGE7CS5zdDF7ZmlsbDojNjY5ZGY2O30mI3hhOwkuc3Qye2ZpbGw6I2FlY2JmYTt9JiN4YTsJPC9zdHlsZT4mI3hhOwk8c3R5bGU+JiN4YTsJCS5Ee2ZpbGwtcnVsZTpldmVub2RkfSYjeGE7CTwvc3R5bGU+JiN4YTsJPHBhdGggZD0iTTcuMzMgMTUuMzV2LTMuMDFMMCA4LjQ0djMuMDF6bTAgNC42NXYtMy4wMUwwIDEzLjA5djMuMDF6IiBjbGFzcz0ic3QyIEQiLz4mI3hhOwk8cGF0aCBkPSJNMTQuNjYgOC40NGwtNy4zMyAzLjl2My4wMWw3LjMzLTMuOXptMCA0LjY1bC03LjMzIDMuOVYyMGw3LjMzLTMuOXoiIGNsYXNzPSJzdDEgRCIvPiYjeGE7CTxwYXRoIGQ9Ik03LjMzIDB2My4wMWw3LjMzIDMuOVYzLjl6IiBjbGFzcz0ic3QwIEQiLz4mI3hhOwk8cGF0aCBkPSJNMCA2LjkxbDcuMzMtMy45VjBMMCAzLjl6IiBjbGFzcz0iRCBzdDEiLz4mI3hhOwk8cGF0aCBkPSJNNy4zMyAxMC43OVY3Ljc3TDAgMy44N3YzLjAyeiIgY2xhc3M9IkQgc3QyIi8+JiN4YTsJPHBhdGggZD0iTTE0LjY2IDMuODdsLTcuMzMgMy45djMuMDJsNy4zMy0zLjl6IiBjbGFzcz0iRCBzdDEiLz4mI3hhOzwvc3ZnPg==;" vertex="1" parent="7k9vSq7eUGEjjqr-b66u-742">
          <mxGeometry width="22" height="30" relative="1" as="geometry">
            <mxPoint x="19" y="15" as="offset" />
          </mxGeometry>
        </mxCell>
        <mxCell id="7k9vSq7eUGEjjqr-b66u-745" value="TensorFlow" style="sketch=0;html=1;verticalAlign=top;labelPosition=center;verticalLabelPosition=bottom;align=center;spacingTop=-6;fontSize=11;fontStyle=1;fontColor=#999999;shape=image;aspect=fixed;imageAspect=0;image=data:image/svg+xml,PHN2ZyB4bWxucz0iaHR0cDovL3d3dy53My5vcmcvMjAwMC9zdmciIHhtbG5zOnY9Imh0dHBzOi8vdmVjdGEuaW8vbmFubyIgd2lkdGg9IjM0Ni4zMDMyMTgzOTM3OTEiIGhlaWdodD0iMzc5LjE5NjAwODk5NjY3Mjk2IiB2aWV3Qm94PSIwIDAgOTEuNjI1OTk5NDUwNjgzNiAxMDAuMzI5MDAyMzgwMzcxMSI+JiN4YTs8c3R5bGUgdHlwZT0idGV4dC9jc3MiPiYjeGE7CS5zdDB7ZmlsbDojNDI4NWY0O30mI3hhOzwvc3R5bGU+JiN4YTsJPHBhdGggY2xhc3M9InN0MCIgZD0iTTQ3LjcyOSAxMDAuMzI5VjBsNDMuODk3IDI1LjAyNXYyMS41NjJsLTI2LjgtMTUuMzQxdjExLjk1bDEzLjIxMyA2Ljg3NnYxOS4xNzdsLTEzLjIxMy03LjcxN3YyOS4wNDZ6TTAgMjUuMDI1TDQzLjQ2MyAwdjEwMC4zMjlsLTE2Ljc1Ni05Ljc1MnYtNTkuMzNMMCA0Ni41ODd6Ii8+JiN4YTs8L3N2Zz4=;" vertex="1" parent="1">
          <mxGeometry x="80" y="478" width="38" height="42" as="geometry" />
        </mxCell>
        <mxCell id="7k9vSq7eUGEjjqr-b66u-746" value="Cloud&#xa;IAM" style="sketch=0;html=1;verticalAlign=top;labelPosition=center;verticalLabelPosition=bottom;align=center;spacingTop=-6;fontSize=11;fontStyle=1;fontColor=#999999;shape=image;aspect=fixed;imageAspect=0;image=data:image/svg+xml,PHN2ZyB4bWxucz0iaHR0cDovL3d3dy53My5vcmcvMjAwMC9zdmciIHhtbG5zOnY9Imh0dHBzOi8vdmVjdGEuaW8vbmFubyIgd2lkdGg9IjE2LjQyMDAwMDA3NjI5Mzk0NSIgaGVpZ2h0PSIyMC4wNDk5OTkyMzcwNjA1NDciIGZpbGwtcnVsZT0iZXZlbm9kZCIgdmlld0JveD0iMCAwIDE2LjQyMDAwMDA3NjI5Mzk0NSAyMC4wNDk5OTkyMzcwNjA1NDciPiYjeGE7CTxzdHlsZSB0eXBlPSJ0ZXh0L2NzcyI+JiN4YTsJLnN0MHtmaWxsOiM0Mjg1ZjQ7fSYjeGE7CS5zdDF7ZmlsbDojNjY5ZGY2O30mI3hhOwk8L3N0eWxlPiYjeGE7CTxwYXRoIGNsYXNzPSJzdDEiIGQ9Ik04LjIxIDBMMCAzLjQydjUuNjNjMCA1LjA2IDMuNSA5LjggOC4yMSAxMSA0LjcxLTEuMTUgOC4yMS01Ljg5IDguMjEtMTAuOTVWMy40MnptMCAzLjc5YTIuNjMgMi42MyAwIDAgMSAxLjAwNSA1LjA2QTIuNjMgMi42MyAwIDAgMSA2LjM1IDQuNTZhMi42MyAyLjYzIDAgMCAxIDEuODYtLjc3em00LjExIDExLjE1YTguNjQgOC42NCAwIDAgMS00LjExIDIuOTMgOC42NCA4LjY0IDAgMCAxLTQuMTEtMi45M3YtMi4yNWMwLTEuNjcgMi43NC0yLjUyIDQuMTEtMi41MnM0LjExLjg1IDQuMTEgMi41MnoiLz4mI3hhOwk8cGF0aCBjbGFzcz0ic3QwIiBkPSJNOC4yMSAwdjMuNzlhMi42MyAyLjYzIDAgMSAxIDAgNS4yNnYxLjEyYzEuMzcgMCA0LjExLjg1IDQuMTEgMi41MnYyLjI1YTguNjQgOC42NCAwIDAgMS00LjExIDIuOTNWMjBjNC43MS0xLjE1IDguMjEtNS44OSA4LjIxLTEwLjk1VjMuNDJ6Ii8+JiN4YTs8L3N2Zz4=;" vertex="1" parent="1">
          <mxGeometry x="80" y="410" width="34" height="42" as="geometry" />
        </mxCell>
        <mxCell id="7k9vSq7eUGEjjqr-b66u-747" value="Workflows" style="sketch=0;html=1;verticalAlign=top;labelPosition=center;verticalLabelPosition=bottom;align=center;spacingTop=-6;fontSize=11;fontStyle=1;fontColor=#999999;shape=image;aspect=fixed;imageAspect=0;image=data:image/svg+xml,PHN2ZyB4bWxucz0iaHR0cDovL3d3dy53My5vcmcvMjAwMC9zdmciIHhtbG5zOnhsaW5rPSJodHRwOi8vd3d3LnczLm9yZy8xOTk5L3hsaW5rIiB4bWxuczp2PSJodHRwczovL3ZlY3RhLmlvL25hbm8iIHdpZHRoPSIxOS41MSIgaGVpZ2h0PSIxOS41IiB2aWV3Qm94PSIwIDAgMTkuNTEgMTkuNSI+JiN4YTsJPHBhdGggZD0iTTE3LjI2IDE3LjgxaC0uN3YtMS41aC43YS43Ni43NiAwIDAgMCAuNzUtLjc1di00LjMxYS43Ni43NiAwIDAgMC0uNzUtLjc1aC0zLjYxVjloMy42MWEyLjI1IDIuMjUgMCAwIDEgMi4yNSAyLjI1djQuMzFhMi4yNSAyLjI1IDAgMCAxLTIuMjUgMi4yNXptLTcuOTUgMGgtNC45di0xLjVoNC45eiIgZmlsbD0iIzQyODVmNCIvPiYjeGE7CTxwYXRoIGZpbGw9IiM2NjlkZjYiIGZpbGwtcnVsZT0iZXZlbm9kZCIgZD0iTTUuODggMTAuNUgyLjI2QTIuMjUgMi4yNSAwIDAgMSAuMDEgOC4yNVYzLjk0YTIuMjUgMi4yNSAwIDAgMSAyLjI1LTIuMjVoMXYxLjVoLTFhLjc1Ljc1IDAgMCAwLS43NS43NXY0LjMxYS43Ni43NiAwIDAgMCAuNzUuNzVoMy42MnoiLz4mI3hhOwk8cGF0aCBmaWxsPSIjNDI4NWY0IiBkPSJNMTUuMDYgMy4xOUg5LjU4di0xLjVoNS40OHoiLz4mI3hhOwk8cGF0aCBmaWxsPSIjYWVjYmZhIiBkPSJNNi4zOSAxLjY5Vi4xOWgtM2ExLjEzIDEuMTMgMCAwIDAtMS4xMyAxLjEydjIuMjVhMS4xMyAxLjEzIDAgMCAwIDEuMTMgMS4xM2gzdi0xLjVIMy43NnYtMS41eiIvPiYjeGE7CTxwYXRoIGZpbGw9IiM2NjlkZjYiIGZpbGwtcnVsZT0iZXZlbm9kZCIgZD0iTTEwLjUxIDEuMzF2Mi4yNWExLjEzIDEuMTMgMCAwIDEtMS4xMiAxLjEzaC0zdi0xLjVoMi42MnYtMS41SDYuMzlWLjE5aDNhMS4xMiAxLjEyIDAgMCAxIDEuMTIgMS4xMnoiLz4mI3hhOwk8cGF0aCBmaWxsPSIjYWVjYmZhIiBkPSJNMTcuMDcgNC44OGEyLjQ0IDIuNDQgMCAxIDEgMi40NC0yLjQ0IDIuNDUgMi40NSAwIDAgMS0yLjQ0IDIuNDR6bTAtMy4zOGEuOTQuOTQgMCAxIDAgLjk0Ljk0Ljk0Ljk0IDAgMCAwLS45NC0uOTR6Ii8+JiN4YTsJPHVzZSB4bGluazpocmVmPSIjQiIgZmlsbD0iIzlhYTBhNiIvPiYjeGE7CTxnIGZpbGw9IiNhZWNiZmEiPiYjeGE7CQk8dXNlIHhsaW5rOmhyZWY9IiNCIi8+JiN4YTsJCTxwYXRoIGQ9Ik0xMy4xMiAxNi4zMnYtMS41aC0zQTEuMTMgMS4xMyAwIDAgMCA5IDE1Ljk1djIuMjVhMS4xMiAxLjEyIDAgMCAwIDEuMTIgMS4xMmgzdi0xLjVIMTAuNXYtMS41eiIvPiYjeGE7CTwvZz4mI3hhOwk8cGF0aCBmaWxsPSIjNjY5ZGY2IiBmaWxsLXJ1bGU9ImV2ZW5vZGQiIGQ9Ik0xNy4yNSAxNS45NXYyLjI1YTEuMTMgMS4xMyAwIDAgMS0xLjEzIDEuMTJoLTN2LTEuNWgyLjY0di0xLjVoLTIuNjR2LTEuNWgzYTEuMTQgMS4xNCAwIDAgMSAxLjEzIDEuMTN6Ii8+JiN4YTsJPHBhdGggZmlsbD0iI2FlY2JmYSIgZD0iTTkuNzYgOVY3LjVoLTNhMS4xMyAxLjEzIDAgMCAwLTEuMTMgMS4xMnYyLjI1QTEuMTMgMS4xMyAwIDAgMCA2Ljc2IDEyaDN2LTEuNUg3LjEzVjl6Ii8+JiN4YTsJPHBhdGggZmlsbD0iIzY2OWRmNiIgZmlsbC1ydWxlPSJldmVub2RkIiBkPSJNMTMuODggOC42MnYyLjI1QTEuMTMgMS4xMyAwIDAgMSAxMi43NiAxMmgtM3YtMS41aDIuNjJWOUg5Ljc2VjcuNWgzYTEuMTIgMS4xMiAwIDAgMSAxLjEyIDEuMTJ6Ii8+JiN4YTsJPGRlZnM+JiN4YTsJCTxwYXRoIGlkPSJCIiBkPSJNMi40NSAxOS41YTIuNDQgMi40NCAwIDEgMSAyLjQzLTIuNDQgMi40NCAyLjQ0IDAgMCAxLTIuNDMgMi40NHptMC0zLjM4YS45NC45NCAwIDEgMCAuOTMuOTQuOTQuOTQgMCAwIDAtLjkzLS45NHoiLz4mI3hhOwk8L2RlZnM+JiN4YTs8L3N2Zz4=;" vertex="1" parent="1">
          <mxGeometry x="420" y="320" width="42" height="42" as="geometry" />
        </mxCell>
        <mxCell id="7k9vSq7eUGEjjqr-b66u-748" value="Workflows" style="sketch=0;html=1;verticalAlign=top;labelPosition=center;verticalLabelPosition=bottom;align=center;spacingTop=-6;fontSize=11;fontStyle=1;fontColor=#999999;shape=image;aspect=fixed;imageAspect=0;image=data:image/svg+xml,PHN2ZyB4bWxucz0iaHR0cDovL3d3dy53My5vcmcvMjAwMC9zdmciIHhtbG5zOnhsaW5rPSJodHRwOi8vd3d3LnczLm9yZy8xOTk5L3hsaW5rIiB4bWxuczp2PSJodHRwczovL3ZlY3RhLmlvL25hbm8iIHdpZHRoPSIxOS41MSIgaGVpZ2h0PSIxOS41IiB2aWV3Qm94PSIwIDAgMTkuNTEgMTkuNSI+JiN4YTsJPHBhdGggZD0iTTE3LjI2IDE3LjgxaC0uN3YtMS41aC43YS43Ni43NiAwIDAgMCAuNzUtLjc1di00LjMxYS43Ni43NiAwIDAgMC0uNzUtLjc1aC0zLjYxVjloMy42MWEyLjI1IDIuMjUgMCAwIDEgMi4yNSAyLjI1djQuMzFhMi4yNSAyLjI1IDAgMCAxLTIuMjUgMi4yNXptLTcuOTUgMGgtNC45di0xLjVoNC45eiIgZmlsbD0iIzQyODVmNCIvPiYjeGE7CTxwYXRoIGZpbGw9IiM2NjlkZjYiIGZpbGwtcnVsZT0iZXZlbm9kZCIgZD0iTTUuODggMTAuNUgyLjI2QTIuMjUgMi4yNSAwIDAgMSAuMDEgOC4yNVYzLjk0YTIuMjUgMi4yNSAwIDAgMSAyLjI1LTIuMjVoMXYxLjVoLTFhLjc1Ljc1IDAgMCAwLS43NS43NXY0LjMxYS43Ni43NiAwIDAgMCAuNzUuNzVoMy42MnoiLz4mI3hhOwk8cGF0aCBmaWxsPSIjNDI4NWY0IiBkPSJNMTUuMDYgMy4xOUg5LjU4di0xLjVoNS40OHoiLz4mI3hhOwk8cGF0aCBmaWxsPSIjYWVjYmZhIiBkPSJNNi4zOSAxLjY5Vi4xOWgtM2ExLjEzIDEuMTMgMCAwIDAtMS4xMyAxLjEydjIuMjVhMS4xMyAxLjEzIDAgMCAwIDEuMTMgMS4xM2gzdi0xLjVIMy43NnYtMS41eiIvPiYjeGE7CTxwYXRoIGZpbGw9IiM2NjlkZjYiIGZpbGwtcnVsZT0iZXZlbm9kZCIgZD0iTTEwLjUxIDEuMzF2Mi4yNWExLjEzIDEuMTMgMCAwIDEtMS4xMiAxLjEzaC0zdi0xLjVoMi42MnYtMS41SDYuMzlWLjE5aDNhMS4xMiAxLjEyIDAgMCAxIDEuMTIgMS4xMnoiLz4mI3hhOwk8cGF0aCBmaWxsPSIjYWVjYmZhIiBkPSJNMTcuMDcgNC44OGEyLjQ0IDIuNDQgMCAxIDEgMi40NC0yLjQ0IDIuNDUgMi40NSAwIDAgMS0yLjQ0IDIuNDR6bTAtMy4zOGEuOTQuOTQgMCAxIDAgLjk0Ljk0Ljk0Ljk0IDAgMCAwLS45NC0uOTR6Ii8+JiN4YTsJPHVzZSB4bGluazpocmVmPSIjQiIgZmlsbD0iIzlhYTBhNiIvPiYjeGE7CTxnIGZpbGw9IiNhZWNiZmEiPiYjeGE7CQk8dXNlIHhsaW5rOmhyZWY9IiNCIi8+JiN4YTsJCTxwYXRoIGQ9Ik0xMy4xMiAxNi4zMnYtMS41aC0zQTEuMTMgMS4xMyAwIDAgMCA5IDE1Ljk1djIuMjVhMS4xMiAxLjEyIDAgMCAwIDEuMTIgMS4xMmgzdi0xLjVIMTAuNXYtMS41eiIvPiYjeGE7CTwvZz4mI3hhOwk8cGF0aCBmaWxsPSIjNjY5ZGY2IiBmaWxsLXJ1bGU9ImV2ZW5vZGQiIGQ9Ik0xNy4yNSAxNS45NXYyLjI1YTEuMTMgMS4xMyAwIDAgMS0xLjEzIDEuMTJoLTN2LTEuNWgyLjY0di0xLjVoLTIuNjR2LTEuNWgzYTEuMTQgMS4xNCAwIDAgMSAxLjEzIDEuMTN6Ii8+JiN4YTsJPHBhdGggZmlsbD0iI2FlY2JmYSIgZD0iTTkuNzYgOVY3LjVoLTNhMS4xMyAxLjEzIDAgMCAwLTEuMTMgMS4xMnYyLjI1QTEuMTMgMS4xMyAwIDAgMCA2Ljc2IDEyaDN2LTEuNUg3LjEzVjl6Ii8+JiN4YTsJPHBhdGggZmlsbD0iIzY2OWRmNiIgZmlsbC1ydWxlPSJldmVub2RkIiBkPSJNMTMuODggOC42MnYyLjI1QTEuMTMgMS4xMyAwIDAgMSAxMi43NiAxMmgtM3YtMS41aDIuNjJWOUg5Ljc2VjcuNWgzYTEuMTIgMS4xMiAwIDAgMSAxLjEyIDEuMTJ6Ii8+JiN4YTsJPGRlZnM+JiN4YTsJCTxwYXRoIGlkPSJCIiBkPSJNMi40NSAxOS41YTIuNDQgMi40NCAwIDEgMSAyLjQzLTIuNDQgMi40NCAyLjQ0IDAgMCAxLTIuNDMgMi40NHptMC0zLjM4YS45NC45NCAwIDEgMCAuOTMuOTQuOTQuOTQgMCAwIDAtLjkzLS45NHoiLz4mI3hhOwk8L2RlZnM+JiN4YTs8L3N2Zz4=;" vertex="1" parent="1">
          <mxGeometry x="70" y="327" width="42" height="42" as="geometry" />
        </mxCell>
        <mxCell id="7k9vSq7eUGEjjqr-b66u-749" value="Cloud Firewall&#xa;Rules" style="sketch=0;html=1;verticalAlign=top;labelPosition=center;verticalLabelPosition=bottom;align=center;spacingTop=-6;fontSize=11;fontStyle=1;fontColor=#999999;shape=image;aspect=fixed;imageAspect=0;image=data:image/svg+xml,PHN2ZyB4bWxucz0iaHR0cDovL3d3dy53My5vcmcvMjAwMC9zdmciIHhtbG5zOnY9Imh0dHBzOi8vdmVjdGEuaW8vbmFubyIgd2lkdGg9IjIwIiBoZWlnaHQ9IjIwIiBmaWxsPSIjNDI4NWY0IiB2aWV3Qm94PSIwIDAgMjAgMjAiPiYjeGE7CTxzdHlsZSB0eXBlPSJ0ZXh0L2NzcyI+JiN4YTsJLnN0MHtmaWxsOiM0Mjg1ZjQ7fSYjeGE7CTwvc3R5bGU+JiN4YTsJPHBhdGggY2xhc3M9InN0MCIgZD0iTTAgMGg4Ljg5djIuMjJIMHptMCAxNy43OGg4Ljg5VjIwSDB6bTAtOC44OWg4Ljg5djIuMjJIMHpNMTEuMTEgMEgyMHYyLjIyaC04Ljg5em0wIDE3Ljc4SDIwVjIwaC04Ljg5em0wLTguODlIMjB2Mi4yMmgtOC44OXpNNS41NSA0LjQ0aDguODl2Mi4yMkg1LjU1em0wIDguODloOC44OXYyLjIySDUuNTV6TTAgNC40NGgzLjMzdjIuMjJIMHptMCA4Ljg5aDMuMzN2Mi4yMkgwem0xNi42Ny04Ljg5SDIwdjIuMjJoLTMuMzN6bTAgOC44OUgyMHYyLjIyaC0zLjMzeiIvPiYjeGE7PC9zdmc+;" vertex="1" parent="1">
          <mxGeometry x="420" y="320" width="42" height="42" as="geometry" />
        </mxCell>
        <mxCell id="7k9vSq7eUGEjjqr-b66u-750" value="Cloud Firewall&#xa;Rules" style="sketch=0;html=1;verticalAlign=top;labelPosition=center;verticalLabelPosition=bottom;align=center;spacingTop=-6;fontSize=11;fontStyle=1;fontColor=#999999;shape=image;aspect=fixed;imageAspect=0;image=data:image/svg+xml,PHN2ZyB4bWxucz0iaHR0cDovL3d3dy53My5vcmcvMjAwMC9zdmciIHhtbG5zOnY9Imh0dHBzOi8vdmVjdGEuaW8vbmFubyIgd2lkdGg9IjIwIiBoZWlnaHQ9IjIwIiBmaWxsPSIjNDI4NWY0IiB2aWV3Qm94PSIwIDAgMjAgMjAiPiYjeGE7CTxzdHlsZSB0eXBlPSJ0ZXh0L2NzcyI+JiN4YTsJLnN0MHtmaWxsOiM0Mjg1ZjQ7fSYjeGE7CTwvc3R5bGU+JiN4YTsJPHBhdGggY2xhc3M9InN0MCIgZD0iTTAgMGg4Ljg5djIuMjJIMHptMCAxNy43OGg4Ljg5VjIwSDB6bTAtOC44OWg4Ljg5djIuMjJIMHpNMTEuMTEgMEgyMHYyLjIyaC04Ljg5em0wIDE3Ljc4SDIwVjIwaC04Ljg5em0wLTguODlIMjB2Mi4yMmgtOC44OXpNNS41NSA0LjQ0aDguODl2Mi4yMkg1LjU1em0wIDguODloOC44OXYyLjIySDUuNTV6TTAgNC40NGgzLjMzdjIuMjJIMHptMCA4Ljg5aDMuMzN2Mi4yMkgwem0xNi42Ny04Ljg5SDIwdjIuMjJoLTMuMzN6bTAgOC44OUgyMHYyLjIyaC0zLjMzeiIvPiYjeGE7PC9zdmc+;" vertex="1" parent="1">
          <mxGeometry x="140" y="358" width="42" height="42" as="geometry" />
        </mxCell>
        <mxCell id="7k9vSq7eUGEjjqr-b66u-751" value="Network&#xa;Intelligence" style="sketch=0;html=1;verticalAlign=top;labelPosition=center;verticalLabelPosition=bottom;align=center;spacingTop=-6;fontSize=11;fontStyle=1;fontColor=#999999;shape=image;aspect=fixed;imageAspect=0;image=data:image/svg+xml,PHN2ZyB4bWxucz0iaHR0cDovL3d3dy53My5vcmcvMjAwMC9zdmciIGlkPSJzdmc4MTMzMSIgdmVyc2lvbj0iMS4xIiB2aWV3Qm94PSIwIDAgNDM2LjcxNzAxIDM5OS43NTMzNiIgaGVpZ2h0PSIzOTkuNzUzMzZtbSIgd2lkdGg9IjQzNi43MTcwMW1tIj4mI3hhOyAgJiN4YTsgIDxkZWZzIGlkPSJkZWZzODEzMjgiLz4mI3hhOyAgPGcgdHJhbnNmb3JtPSJ0cmFuc2xhdGUoMTExLjg3MDE3LDUxLjExNjc3NykiIGlkPSJsYXllcjEiPiYjeGE7ICAgIDxwYXRoIHRyYW5zZm9ybT0ic2NhbGUoMC4yNjQ1ODMzMykiIGQ9Ik0gMzkyLjQ2MDk0LC0xOTMuMTk3MjcgQSAxNTEuMjE4MzQsMTUxLjIxODM0IDAgMCAwIDI0MS4yNDIxOSwtNDEuOTc4NTE2IDE1MS4yMTgzNCwxNTEuMjE4MzQgMCAwIDAgMzkyLjQ2MDk0LDEwOS4yNDAyMyAxNTEuMjE4MzQsMTUxLjIxODM0IDAgMCAwIDU0My42Nzk2OSwtNDEuOTc4NTE2IDE1MS4yMTgzNCwxNTEuMjE4MzQgMCAwIDAgMzkyLjQ2MDk0LC0xOTMuMTk3MjcgWiBNIDkwNy4yMTg3NSwtMzEuNjk5MjE5IEEgMTUxLjIxODM0LDE1MS4yMTgzNCAwIDAgMCA3NjQuNTUyNzMsNjkuNzA3MDMxIEggNjQ5LjM1NTQ3IEEgNTEuMDI4NzI0LDUxLjAyODcyNCAwIDAgMCA2MDUuMjc3MzQsOTUuMDI3MzQ0IEwgNTEyLjk4MjQyLDI1My4yNTU4NiBIIDI3Mi40NTExNyBMIDE4MC4xNTQzLDk1LjAyNzM0NCBBIDUxLjAyODcyNCw1MS4wMjg3MjQgMCAwIDAgMTM2LjA3ODEyLDY5LjcwNzAzMSBIIDIxLjkyMTg3NSBBIDE1MS4yMTgzNCwxNTEuMjE4MzQgMCAwIDAgLTEyMC40ODgyOCwtMzAuNjgzNTk0IDE1MS4yMTgzNCwxNTEuMjE4MzQgMCAwIDAgLTI3MS43MDcwMywxMjAuNTMzMiAxNTEuMjE4MzQsMTUxLjIxODM0IDAgMCAwIC0xMjAuNDg4MjgsMjcxLjc1MTk1IDE1MS4yMTgzNCwxNTEuMjE4MzQgMCAwIDAgMjEuNjg1NTQ3LDE3MS43NTM5MSBIIDEwNi43NzE0OCBMIDE4Mi4xNDI1OCwzMDAuOTY2OCA2Mi4wMzEyNSw1MDYuNTQ0OTIgSCAtMTI4LjgxODM2IEEgMTUxLjIxODM0LDE1MS4yMTgzNCAwIDAgMCAtMjcxLjU5NzY2LDQwNC44MTQ0NSAxNTEuMjE4MzQsMTUxLjIxODM0IDAgMCAwIC00MjIuODE2NDEsNTU2LjAzMzIgMTUxLjIxODM0LDE1MS4yMTgzNCAwIDAgMCAtMjcxLjU5NzY2LDcwNy4yNTE5NSAxNTEuMjE4MzQsMTUxLjIxODM0IDAgMCAwIC0xMjkuODkyNTgsNjA4LjU5MTggSCA2NC43MDcwMzEgTCAxODMuNzA1MDgsODE3Ljc1MzkxIDEwNi43NzE0OCw5NDkuNjQyNTggSCAyMy42OTMzNTkgQSAxNTEuMjE4MzQsMTUxLjIxODM0IDAgMCAwIC0xMTkuNzg1MTYsODQ1LjkxNDA2IDE1MS4yMTgzNCwxNTEuMjE4MzQgMCAwIDAgLTI3MS4wMDM5MSw5OTcuMTMyODEgMTUxLjIxODM0LDE1MS4yMTgzNCAwIDAgMCAtMTE5Ljc4NTE2LDExNDguMzUxNiAxNTEuMjE4MzQsMTUxLjIxODM0IDAgMCAwIDIxLjIyMDcwMywxMDUxLjY5MTQgSCAxMzYuMDc4MTIgYSA1MS4wMjg3MjQsNTEuMDI4NzI0IDAgMCAwIDQ0LjA3NjE4LC0yNS4zMTI1IEwgMjc0Ljg2OTE0LDg2NC4wMDM5MSBIIDUxMC41NjI1IGwgOTQuNzE0ODQsMTYyLjM3NDk5IGEgNTEuMDI4NzI0LDUxLjAyODcyNCAwIDAgMCA0NC4wNzgxMywyNS4zMTI1IGggMTE2LjI1MzkxIGEgMTUxLjIxODM0LDE1MS4yMTgzNCAwIDAgMCAxNDEuMzQ1Nyw5Ny42Mjg5IEEgMTUxLjIxODM0LDE1MS4yMTgzNCAwIDAgMCAxMDU4LjE3MTksOTk4LjEwMTU2IDE1MS4yMTgzNCwxNTEuMjE4MzQgMCAwIDAgOTA2Ljk1NTA4LDg0Ni44ODQ3NyAxNTEuMjE4MzQsMTUxLjIxODM0IDAgMCAwIDc2My44MTQ0NSw5NDkuNjQyNTggSCA2NzguNjYyMTEgTCA2MDAuNzI0NjEsODE2LjAzNTE2IDcyNC4zMzM5OCw2MDguNTkxOCBIIDkzNC4xMzI4MSBBIDE1MS4yMTgzNCwxNTEuMjE4MzQgMCAwIDAgMTA3Ni41NDg4LDcwOS4yNzkzIDE1MS4yMTgzNCwxNTEuMjE4MzQgMCAwIDAgMTIyNy43Njc2LDU1OC4wNjI1IDE1MS4yMTgzNCwxNTEuMjE4MzQgMCAwIDAgMTA3Ni41NDg4LDQwNi44NDM3NSAxNTEuMjE4MzQsMTUxLjIxODM0IDAgMCAwIDkzNC40Nzg1Miw1MDYuNTQ0OTIgSCA3MjcuMTM0NzcgTCA2MDIuMzM3ODksMzAyLjU5OTYxIDY3OC42NjIxMSwxNzEuNzUzOTEgaCA4Ni43MzgyOCBBIDE1MS4yMTgzNCwxNTEuMjE4MzQgMCAwIDAgOTA3LjIxODc1LDI3MC43MzgyOCAxNTEuMjE4MzQsMTUxLjIxODM0IDAgMCAwIDEwNTguNDM3NSwxMTkuNTE5NTMgMTUxLjIxODM0LDE1MS4yMTgzNCAwIDAgMCA5MDcuMjE4NzUsLTMxLjY5OTIxOSBaIE0gMzkzLjM2NTIzLDEwMTUuMjQ0MSBhIDE1MS4yMTgzNCwxNTEuMjE4MzQgMCAwIDAgLTE1MS4yMTg3NSwxNTEuMjE4OCAxNTEuMjE4MzQsMTUxLjIxODM0IDAgMCAwIDE1MS4yMTg3NSwxNTEuMjE4NyAxNTEuMjE4MzQsMTUxLjIxODM0IDAgMCAwIDE1MS4yMTg3NSwtMTUxLjIxODcgMTUxLjIxODM0LDE1MS4yMTgzNCAwIDAgMCAtMTUxLjIxODc1LC0xNTEuMjE4OCB6IiBzdHlsZT0iY29sb3I6IzAwMDAwMDtmaWxsOiM1OTg2ZjI7ZmlsbC1vcGFjaXR5OjE7c3Ryb2tlLXdpZHRoOjU2LjY5Mjk7c3Ryb2tlLWxpbmVqb2luOnJvdW5kOy1pbmtzY2FwZS1zdHJva2U6bm9uZSIgaWQ9InBhdGg4MTQ1NCIvPiYjeGE7ICA8L2c+JiN4YTs8L3N2Zz4=;" vertex="1" parent="1">
          <mxGeometry x="420" y="320" width="42" height="38" as="geometry" />
        </mxCell>
        <mxCell id="7k9vSq7eUGEjjqr-b66u-752" value="Network&#xa;Intelligence" style="sketch=0;html=1;verticalAlign=top;labelPosition=center;verticalLabelPosition=bottom;align=center;spacingTop=-6;fontSize=11;fontStyle=1;fontColor=#999999;shape=image;aspect=fixed;imageAspect=0;image=data:image/svg+xml,PHN2ZyB4bWxucz0iaHR0cDovL3d3dy53My5vcmcvMjAwMC9zdmciIGlkPSJzdmc4MTMzMSIgdmVyc2lvbj0iMS4xIiB2aWV3Qm94PSIwIDAgNDM2LjcxNzAxIDM5OS43NTMzNiIgaGVpZ2h0PSIzOTkuNzUzMzZtbSIgd2lkdGg9IjQzNi43MTcwMW1tIj4mI3hhOyAgJiN4YTsgIDxkZWZzIGlkPSJkZWZzODEzMjgiLz4mI3hhOyAgPGcgdHJhbnNmb3JtPSJ0cmFuc2xhdGUoMTExLjg3MDE3LDUxLjExNjc3NykiIGlkPSJsYXllcjEiPiYjeGE7ICAgIDxwYXRoIHRyYW5zZm9ybT0ic2NhbGUoMC4yNjQ1ODMzMykiIGQ9Ik0gMzkyLjQ2MDk0LC0xOTMuMTk3MjcgQSAxNTEuMjE4MzQsMTUxLjIxODM0IDAgMCAwIDI0MS4yNDIxOSwtNDEuOTc4NTE2IDE1MS4yMTgzNCwxNTEuMjE4MzQgMCAwIDAgMzkyLjQ2MDk0LDEwOS4yNDAyMyAxNTEuMjE4MzQsMTUxLjIxODM0IDAgMCAwIDU0My42Nzk2OSwtNDEuOTc4NTE2IDE1MS4yMTgzNCwxNTEuMjE4MzQgMCAwIDAgMzkyLjQ2MDk0LC0xOTMuMTk3MjcgWiBNIDkwNy4yMTg3NSwtMzEuNjk5MjE5IEEgMTUxLjIxODM0LDE1MS4yMTgzNCAwIDAgMCA3NjQuNTUyNzMsNjkuNzA3MDMxIEggNjQ5LjM1NTQ3IEEgNTEuMDI4NzI0LDUxLjAyODcyNCAwIDAgMCA2MDUuMjc3MzQsOTUuMDI3MzQ0IEwgNTEyLjk4MjQyLDI1My4yNTU4NiBIIDI3Mi40NTExNyBMIDE4MC4xNTQzLDk1LjAyNzM0NCBBIDUxLjAyODcyNCw1MS4wMjg3MjQgMCAwIDAgMTM2LjA3ODEyLDY5LjcwNzAzMSBIIDIxLjkyMTg3NSBBIDE1MS4yMTgzNCwxNTEuMjE4MzQgMCAwIDAgLTEyMC40ODgyOCwtMzAuNjgzNTk0IDE1MS4yMTgzNCwxNTEuMjE4MzQgMCAwIDAgLTI3MS43MDcwMywxMjAuNTMzMiAxNTEuMjE4MzQsMTUxLjIxODM0IDAgMCAwIC0xMjAuNDg4MjgsMjcxLjc1MTk1IDE1MS4yMTgzNCwxNTEuMjE4MzQgMCAwIDAgMjEuNjg1NTQ3LDE3MS43NTM5MSBIIDEwNi43NzE0OCBMIDE4Mi4xNDI1OCwzMDAuOTY2OCA2Mi4wMzEyNSw1MDYuNTQ0OTIgSCAtMTI4LjgxODM2IEEgMTUxLjIxODM0LDE1MS4yMTgzNCAwIDAgMCAtMjcxLjU5NzY2LDQwNC44MTQ0NSAxNTEuMjE4MzQsMTUxLjIxODM0IDAgMCAwIC00MjIuODE2NDEsNTU2LjAzMzIgMTUxLjIxODM0LDE1MS4yMTgzNCAwIDAgMCAtMjcxLjU5NzY2LDcwNy4yNTE5NSAxNTEuMjE4MzQsMTUxLjIxODM0IDAgMCAwIC0xMjkuODkyNTgsNjA4LjU5MTggSCA2NC43MDcwMzEgTCAxODMuNzA1MDgsODE3Ljc1MzkxIDEwNi43NzE0OCw5NDkuNjQyNTggSCAyMy42OTMzNTkgQSAxNTEuMjE4MzQsMTUxLjIxODM0IDAgMCAwIC0xMTkuNzg1MTYsODQ1LjkxNDA2IDE1MS4yMTgzNCwxNTEuMjE4MzQgMCAwIDAgLTI3MS4wMDM5MSw5OTcuMTMyODEgMTUxLjIxODM0LDE1MS4yMTgzNCAwIDAgMCAtMTE5Ljc4NTE2LDExNDguMzUxNiAxNTEuMjE4MzQsMTUxLjIxODM0IDAgMCAwIDIxLjIyMDcwMywxMDUxLjY5MTQgSCAxMzYuMDc4MTIgYSA1MS4wMjg3MjQsNTEuMDI4NzI0IDAgMCAwIDQ0LjA3NjE4LC0yNS4zMTI1IEwgMjc0Ljg2OTE0LDg2NC4wMDM5MSBIIDUxMC41NjI1IGwgOTQuNzE0ODQsMTYyLjM3NDk5IGEgNTEuMDI4NzI0LDUxLjAyODcyNCAwIDAgMCA0NC4wNzgxMywyNS4zMTI1IGggMTE2LjI1MzkxIGEgMTUxLjIxODM0LDE1MS4yMTgzNCAwIDAgMCAxNDEuMzQ1Nyw5Ny42Mjg5IEEgMTUxLjIxODM0LDE1MS4yMTgzNCAwIDAgMCAxMDU4LjE3MTksOTk4LjEwMTU2IDE1MS4yMTgzNCwxNTEuMjE4MzQgMCAwIDAgOTA2Ljk1NTA4LDg0Ni44ODQ3NyAxNTEuMjE4MzQsMTUxLjIxODM0IDAgMCAwIDc2My44MTQ0NSw5NDkuNjQyNTggSCA2NzguNjYyMTEgTCA2MDAuNzI0NjEsODE2LjAzNTE2IDcyNC4zMzM5OCw2MDguNTkxOCBIIDkzNC4xMzI4MSBBIDE1MS4yMTgzNCwxNTEuMjE4MzQgMCAwIDAgMTA3Ni41NDg4LDcwOS4yNzkzIDE1MS4yMTgzNCwxNTEuMjE4MzQgMCAwIDAgMTIyNy43Njc2LDU1OC4wNjI1IDE1MS4yMTgzNCwxNTEuMjE4MzQgMCAwIDAgMTA3Ni41NDg4LDQwNi44NDM3NSAxNTEuMjE4MzQsMTUxLjIxODM0IDAgMCAwIDkzNC40Nzg1Miw1MDYuNTQ0OTIgSCA3MjcuMTM0NzcgTCA2MDIuMzM3ODksMzAyLjU5OTYxIDY3OC42NjIxMSwxNzEuNzUzOTEgaCA4Ni43MzgyOCBBIDE1MS4yMTgzNCwxNTEuMjE4MzQgMCAwIDAgOTA3LjIxODc1LDI3MC43MzgyOCAxNTEuMjE4MzQsMTUxLjIxODM0IDAgMCAwIDEwNTguNDM3NSwxMTkuNTE5NTMgMTUxLjIxODM0LDE1MS4yMTgzNCAwIDAgMCA5MDcuMjE4NzUsLTMxLjY5OTIxOSBaIE0gMzkzLjM2NTIzLDEwMTUuMjQ0MSBhIDE1MS4yMTgzNCwxNTEuMjE4MzQgMCAwIDAgLTE1MS4yMTg3NSwxNTEuMjE4OCAxNTEuMjE4MzQsMTUxLjIxODM0IDAgMCAwIDE1MS4yMTg3NSwxNTEuMjE4NyAxNTEuMjE4MzQsMTUxLjIxODM0IDAgMCAwIDE1MS4yMTg3NSwtMTUxLjIxODcgMTUxLjIxODM0LDE1MS4yMTgzNCAwIDAgMCAtMTUxLjIxODc1LC0xNTEuMjE4OCB6IiBzdHlsZT0iY29sb3I6IzAwMDAwMDtmaWxsOiM1OTg2ZjI7ZmlsbC1vcGFjaXR5OjE7c3Ryb2tlLXdpZHRoOjU2LjY5Mjk7c3Ryb2tlLWxpbmVqb2luOnJvdW5kOy1pbmtzY2FwZS1zdHJva2U6bm9uZSIgaWQ9InBhdGg4MTQ1NCIvPiYjeGE7ICA8L2c+JiN4YTs8L3N2Zz4=;" vertex="1" parent="1">
          <mxGeometry x="170" y="446" width="42" height="38" as="geometry" />
        </mxCell>
        <mxCell id="7k9vSq7eUGEjjqr-b66u-753" value="Cloud&#xa;Network" style="sketch=0;html=1;verticalAlign=top;labelPosition=center;verticalLabelPosition=bottom;align=center;spacingTop=-6;fontSize=11;fontStyle=1;fontColor=#999999;shape=image;aspect=fixed;imageAspect=0;image=data:image/svg+xml,PHN2ZyB4bWxucz0iaHR0cDovL3d3dy53My5vcmcvMjAwMC9zdmciIHhtbG5zOnY9Imh0dHBzOi8vdmVjdGEuaW8vbmFubyIgd2lkdGg9IjIwIiBoZWlnaHQ9IjE4Ljc1OTk5ODMyMTUzMzIwMyIgdmlld0JveD0iMCAwIDIwIDE4Ljc1OTk5ODMyMTUzMzIwMyI+JiN4YTsJPHN0eWxlIHR5cGU9InRleHQvY3NzIj4mI3hhOwkuc3Qwe2ZpbGw6IzQyODVmNDt9JiN4YTsJLnN0MXtmaWxsOiM2NjlkZjY7fSYjeGE7CS5zdDJ7ZmlsbDojYWVjYmZhO30mI3hhOwk8L3N0eWxlPiYjeGE7CTxwYXRoIGNsYXNzPSJzdDEiIGQ9Ik0xMC42MiAxNi40NUw0LjMgMTAuMzFsLTEuMzYuNzcgNi41OSA2LjUyem01LjA3LTcuNjNsMS43OC0uMzgtNi45LTdMOS40OCAyLjZ6IiBmaWxsLXJ1bGU9ImV2ZW5vZGQiLz4mI3hhOwk8cGF0aCBjbGFzcz0ic3QwIiBkPSJNOS4zOCAyLjUxaDEuMjV2NUg5LjM4em0wIDkuMzdoMS4yNXY1SDkuMzh6Ii8+JiN4YTsJPGcgY2xhc3M9InN0MiI+JiN4YTsJCTxjaXJjbGUgY3g9IjEwIiBjeT0iMS44OCIgcj0iMS44OCIvPiYjeGE7CQk8Y2lyY2xlIGN4PSIxMCIgY3k9IjE2Ljg4IiByPSIxLjg4Ii8+JiN4YTsJPC9nPiYjeGE7CTxwYXRoIGNsYXNzPSJzdDEiIGQ9Ik0xOS4zNyAxMC42M0g0LjNMLjY2IDguNzZoMTUuMDd6IiBmaWxsLXJ1bGU9ImV2ZW5vZGQiLz4mI3hhOwk8ZyBjbGFzcz0ic3QyIj4mI3hhOwkJPGNpcmNsZSBjeD0iMi41IiBjeT0iOS42OSIgcj0iMi41Ii8+JiN4YTsJCTxjaXJjbGUgY3g9IjE3LjUiIGN5PSI5LjY5IiByPSIyLjUiLz4mI3hhOwk8L2c+JiN4YTs8L3N2Zz4=;" vertex="1" parent="1">
          <mxGeometry x="178" y="540" width="42" height="40" as="geometry" />
        </mxCell>
        <mxCell id="7k9vSq7eUGEjjqr-b66u-754" value="Standard&#xa;Network Tier" style="sketch=0;html=1;verticalAlign=top;labelPosition=center;verticalLabelPosition=bottom;align=center;spacingTop=-6;fontSize=11;fontStyle=1;fontColor=#999999;shape=image;aspect=fixed;imageAspect=0;image=data:image/svg+xml,PHN2ZyB4bWxucz0iaHR0cDovL3d3dy53My5vcmcvMjAwMC9zdmciIHhtbG5zOnY9Imh0dHBzOi8vdmVjdGEuaW8vbmFubyIgd2lkdGg9IjQyNC4wMDEwMzc1OTc2NTYyNSIgaGVpZ2h0PSIyMTMuOTk4Mzk3ODI3MTQ4NDQiIHZpZXdCb3g9Ii0wLjAwMDAyMDQ4Mjg0MTEzNjk4MTczMyAwIDQyNC4wMDEwMzc1OTc2NTYyNSAyMTMuOTk4Mzk3ODI3MTQ4NDQiPiYjeGE7CTxzdHlsZSB0eXBlPSJ0ZXh0L2NzcyI+JiN4YTsJLnN0MHtmaWxsOiM0Mjg1ZjQ7fSYjeGE7CTwvc3R5bGU+JiN4YTsJPHBhdGggY2xhc3M9InN0MCIgZD0iTTk5LjQzMSA0Ni44NTRsLjM3NC4yODkgMTA1Ljc1OCA4My4yMDhhNDIuMDggNDIuMDggMCAwIDEgNC43MTUtLjM4OWwuNzg5LS4wMTNjMTcuNDExLS4wMDQgMzMuMDE4IDEwLjc1OCAzOS4yMjMgMjcuMDQ5czEuNzIxIDM0LjcyNS0xMS4yNzEgNDYuMzMzYTQxLjkzIDQxLjkzIDAgMCAxLTQ3LjI1MyA1Ljk1NiA0Mi4wNCA0Mi4wNCAwIDAgMS0yMi40NDQtNDEuNTcxbC4wNTYtLjUxOS0uMDI2LS4wM0w4Ny43IDU4Ljk3NmMtOS40ODEtMTIuNTYyLS41NzUtMjEuNDg2IDExLjczLTEyLjEyM3ptMzA2LjgzOCAxMjcuNzI2YzkuNzkzIDAgMTcuNzMyIDcuOTQ5IDE3LjczMiAxNy43NTVzLTcuOTM5IDE3Ljc1NS0xNy43MzIgMTcuNzU1LTE3LjczMi03Ljk0OS0xNy43MzItMTcuNzU1IDcuOTM5LTE3Ljc1NSAxNy43MzItMTcuNzU1ek02MC4yNDEgNjguNzk3bDIwLjQyMyAyOC4zMmEyMTcuMTYgMjE3LjE2IDAgMCAwLTQ2LjkyIDk3LjM5OSAxNy4wNCAxNy4wNCAwIDAgMS0xMS4yODggMTIuOTYxYy01LjgyMyAxLjk2NC0xMi4yNTEuNjMzLTE2LjgxOS0zLjQ4MmExNy4wNiAxNy4wNiAwIDAgMS01LjIyOS0xNi4zOGM4LjgxNy00NC4zMDUgMjkuNDk5LTg1LjM3NiA1OS44MzMtMTE4LjgxN3ptMzIyLjc2MiA0MS4zMDhjOS43OTMgMCAxNy43MzIgNy45NDkgMTcuNzMyIDE3Ljc1NXMtNy45MzkgMTcuNzU1LTE3LjczMiAxNy43NTUtMTcuNzMyLTcuOTQ5LTE3LjczMi0xNy43NTUgNy45MzktMTcuNzU1IDE3LjczMi0xNy43NTV6bS00MS42MjgtNTUuMDk0YzkuNzkzIDAgMTcuNzMyIDcuOTQ5IDE3LjczMiAxNy43NTVzLTcuOTM5IDE3Ljc1NS0xNy43MzIgMTcuNzU1LTE3LjczMi03Ljk0OS0xNy43MzItMTcuNzU1IDcuOTM5LTE3Ljc1NSAxNy43MzItMTcuNzU1em0tNTcuNzkyLTM4Ljk3OWM5Ljc5MyAwIDE3LjczMiA3Ljk0OSAxNy43MzIgMTcuNzU1cy03LjkzOSAxNy43NTUtMTcuNzMyIDE3Ljc1NS0xNy43MzItNy45NDktMTcuNzMyLTE3Ljc1NSA3LjkzOS0xNy43NTUgMTcuNzMyLTE3Ljc1NXptLTEzMy4wNzQtNC4zMjdjOS43OTMgMCAxNy43MzIgNy45NDkgMTcuNzMyIDE3Ljc1NXMtNy45MzkgMTcuNzU1LTE3LjczMiAxNy43NTUtMTcuNzMyLTcuOTQ5LTE3LjczMi0xNy43NTUgNy45MzktMTcuNzU1IDE3LjczMi0xNy43NTV6TTIxNy4zNTcgMGM5Ljc5MyAwIDE3LjczMiA3Ljk0OSAxNy43MzIgMTcuNzU1UzIyNy4xNSAzNS41MSAyMTcuMzU3IDM1LjUxcy0xNy43MzItNy45NDktMTcuNzMyLTE3Ljc1NVMyMDcuNTY0IDAgMjE3LjM1NyAweiIgZmlsbD0iIzQyODVmNCIvPiYjeGE7PC9zdmc+;" vertex="1" parent="1">
          <mxGeometry x="158" y="310" width="42" height="21" as="geometry" />
        </mxCell>
      </root>
    </mxGraphModel>
  </diagram>
</mxfile>
